<svg xmlns:inkscape="http://www.inkscape.org/namespaces/inkscape" xmlns:sodipodi="http://sodipodi.sourceforge.net/DTD/sodipodi-0.dtd" xmlns="http://www.w3.org/2000/svg" xmlns:svg="http://www.w3.org/2000/svg" version="1.1" id="svg11" sodipodi:docname="Qumai_Logo_2_RGB.cdr" viewBox="74.54 106.43 431.62 113.16">
  <defs id="defs15"/>
  <sodipodi:namedview id="namedview13" pagecolor="#ffffff" bordercolor="#666666" borderopacity="1.0" inkscape:pageshadow="2" inkscape:pageopacity="0.0" inkscape:pagecheckerboard="0"/>
  <g id="Layer1000">
    <path d="m 74.5371,108.726 h 67.6146 c 22.138,0 41.3261,12.628 50.7554,31.0732 h -87.2969 c -17.0904,0 -31.0731,-13.9829 -31.0731,-31.0732 z m 122.3474,41.1241 c 1.4535,5.0299 2.2347,10.3451 2.2347,15.8431 0,5.3862 -0.7482,10.5978 -2.1452,15.5368 h -61.3515 c -17.2586,0 -31.3795,-14.1209 -31.3795,-31.3799 v 0 z m -3.9948,41.7722 c -6.6736,13.0327 -18.222,23.1545 -32.2381,27.9648 3.8132,-2.8412 6.285,-7.3839 6.285,-12.4523 0,-8.498 -6.7154,-15.283 -15.0857,-15.5125 z" style="fill:#1dc6c3;fill-rule:evenodd" id="path2"/>
    <path d="m 301.3863,184.6664 v -12.2907 c -1.9261,0.8254 -5.1363,1.284 -7.8882,1.284 -6.3287,0 -12.841,-2.2013 -16.6932,-5.595 10.0893,-5.595 15.3175,-16.4182 15.3175,-28.709 0,-18.3444 -11.2819,-32.9284 -31.5524,-32.9284 -20.3624,0 -31.5525,14.859 -31.5525,32.8366 0,22.4719 12.5657,32.6531 31.4606,32.6531 0.6421,0 0.4587,0 1.1007,0 5.6869,7.3378 17.519,14.584 28.3422,14.584 5.1364,0 9.1724,-0.7339 11.4653,-1.8346 z M 273.136,138.8052 c 0,12.0158 -2.4767,24.3065 -12.1992,24.3065 -9.3558,0 -12.9328,-11.2818 -12.9328,-23.5726 0,-14.2169 3.4855,-24.3065 12.1989,-24.3065 9.631,0 12.9331,11.6487 12.9331,23.5726 z m 72.0374,31.8277 c -0.7339,-4.4028 -1.0091,-11.2819 -1.0091,-17.7023 0,-2.2014 0,-5.0449 0,-7.3378 0,-6.1455 0.1836,-11.8321 0.642,-17.519 -6.6039,0.8255 -11.3734,1.1007 -17.7939,1.2841 0.2749,5.0448 0.5502,9.9978 0.5502,15.1342 0,3.9441 0,9.9059 0,13.4833 -2.293,2.0177 -4.5862,3.3936 -6.3289,3.3936 -2.6598,0 -3.9439,-1.7427 -4.2191,-5.8703 -0.1834,-2.0179 -0.0919,-7.0625 -0.0919,-9.3557 0,-4.4943 0.0919,-10.1812 0.4587,-18.0692 -6.6039,0.9173 -12.2908,1.1007 -17.9776,1.2841 0.7339,6.6957 0.7339,13.3915 0.7339,17.8858 0,1.8346 0,6.4207 0.0915,9.5391 0.3671,9.1724 3.3021,15.1342 13.2999,15.1342 4.7696,0 10.4564,-2.66 14.0335,-5.4116 v 5.32 c 7.5211,-0.7338 10.7317,-0.9172 17.6108,-1.1925 z m 83.2277,0.4587 c -0.8257,-7.613 -0.9173,-13.2999 -0.9173,-19.9038 0,-1.7427 0,-4.4943 -0.0918,-7.613 -0.1834,-8.0714 -2.2929,-15.501 -13.208,-15.501 -4.8612,0 -10.6399,2.4764 -15.9597,6.6039 -2.2929,-4.4943 -4.5861,-6.6039 -11.9239,-6.6039 -4.2191,0 -10.548,2.5682 -14.4003,5.4116 v -5.5034 c -3.8523,0.8254 -11.9239,1.1925 -17.6108,1.3759 0.9173,5.2282 1.0092,12.3826 1.0092,16.6017 0,1.9261 0,6.5123 0,7.9798 0,6.2371 0,9.0805 -0.5505,17.1522 3.7607,-0.4587 6.4204,-0.5502 8.8052,-0.5502 2.4767,0 5.8703,0.1834 8.989,0.5502 -0.3668,-3.9442 -0.5505,-9.5392 -0.6421,-17.3356 0,-2.935 0,-8.7137 0,-11.6487 2.293,-2.018 5.0446,-3.4855 6.7873,-3.4855 2.9353,0 4.1275,1.9262 4.4028,5.9621 0.1834,2.2011 0.0918,8.1632 0.0918,9.5389 0,5.1367 0,11.3737 -0.4586,16.9688 3.3018,-0.2753 6.8791,-0.5502 9.2639,-0.5502 2.4763,0 5.4116,0.1834 8.53,0.5502 -0.4584,-5.6869 -0.6421,-13.2081 -0.6421,-18.6197 0,-2.018 -0.1834,-8.255 -0.1834,-10.548 2.2933,-2.2014 4.8615,-3.3021 6.6042,-3.3021 3.0268,0 4.1275,2.2933 4.4025,6.0537 0.0918,1.8346 0.0918,7.7046 0.0918,9.0805 0,4.2194 -0.0918,11.19 -0.4586,17.3356 3.5773,-0.3668 6.6957,-0.5502 9.0805,-0.5502 2.4766,0 5.7784,0.1834 8.9889,0.5502 z m 49.7489,-1.1923 c -0.642,-2.3848 -0.9173,-5.2282 -1.1007,-8.1635 -0.1834,-3.3018 -0.1834,-6.9709 -0.1834,-9.9059 0,-3.3021 0.0919,-4.8612 0.0919,-8.1633 0,-10.548 -3.3021,-15.7762 -17.7024,-15.7762 -6.4208,0 -14.1253,1.0089 -21.9217,3.4855 1.0088,3.4852 2.3848,8.9887 2.66,10.3646 4.7696,-3.6689 9.4473,-5.5035 14.0335,-5.5035 3.7604,0 6.0537,2.2933 6.0537,6.4205 v 1.9264 c -3.0269,0.4584 -9.5392,1.2841 -14.0335,2.4764 -5.4117,1.4675 -11.2819,4.2194 -11.2819,12.2907 0,8.8056 5.1364,12.566 12.3826,12.566 3.8522,0 9.4473,-1.6509 13.5748,-4.953 0.0916,1.4675 0.2752,3.3937 0.5502,4.953 5.3201,-1.0088 11.3737,-1.9261 16.8769,-2.0177 z m -17.9776,-9.9978 c -1.0088,0.917 -4.1275,1.9262 -5.595,1.9262 -1.9262,0 -3.7605,-1.2841 -3.7605,-4.1276 0,-2.9352 1.4675,-4.3109 3.9439,-4.953 1.2841,-0.367 3.8526,-0.8254 5.4116,-1.0091 0,1.4678 0,5.9621 0,8.1635 z m 45.9887,-44.0269 c 0,-5.0445 -3.1186,-8.8971 -9.4476,-8.8971 -6.1452,0 -10.0893,3.6689 -10.0893,8.8971 0,5.7788 4.4028,8.8971 10.0893,8.8971 6.329,0 9.4476,-3.8522 9.4476,-8.8971 z m -1.0091,55.217 c -0.3668,-4.5862 -0.642,-10.3646 -0.642,-16.6936 0,-3.3936 0,-6.4204 0,-8.3466 0,-5.32 0,-11.8323 0.1834,-17.9776 -5.9619,0.6421 -11.8321,1.2841 -17.7024,1.376 0.642,5.1363 0.8254,12.5657 0.8254,16.6932 0,3.0268 0,5.8703 0,8.1635 0,6.4205 -0.2749,9.9975 -0.642,16.7851 4.036,-0.3668 6.8794,-0.5502 8.9889,-0.5502 2.1096,0 6.329,0.1834 8.9887,0.5502 z" style="fill:#2a2a2a;fill-rule:evenodd" id="path4"/>
    <path d="m 234.6642,193.9039 c 0.5521,0.0122 1.0561,0.1112 1.5117,0.2985 0.4558,0.1874 0.8467,0.4394 1.1712,0.754 0.3246,0.3144 0.5766,0.6792 0.756,1.0965 0.1795,0.4172 0.2682,0.8628 0.2682,1.3345 0,0.4757 -0.0887,0.9233 -0.2682,1.3425 -0.1794,0.4195 -0.4314,0.7864 -0.756,1.1027 -0.3245,0.3166 -0.7154,0.5706 -1.1712,0.76 -0.4556,0.1896 -0.9596,0.2902 -1.5117,0.3024 v 1.0463 h -1.1129 v -1.0463 c -0.5565,-0.0122 -1.0624,-0.1128 -1.518,-0.3024 -0.4555,-0.1894 -0.8447,-0.4434 -1.169,-0.76 -0.3246,-0.3163 -0.5766,-0.6832 -0.756,-1.1027 -0.1794,-0.4192 -0.2701,-0.8668 -0.2701,-1.3425 0,-0.4717 0.0907,-0.9173 0.2721,-1.3345 0.1814,-0.4173 0.4354,-0.7821 0.762,-1.0965 0.3265,-0.3146 0.7177,-0.5666 1.1732,-0.754 0.4555,-0.1873 0.9576,-0.2863 1.5058,-0.2985 v -1.0219 h 1.1129 z m -3.6528,3.4835 c 0,0.3549 0.0604,0.6874 0.1815,0.9978 0.1207,0.3104 0.2922,0.5828 0.5139,0.8164 0.2216,0.2339 0.4898,0.4195 0.8022,0.5564 0.3126,0.1372 0.6593,0.2078 1.0423,0.2118 v -5.1585 c -0.383,0.008 -0.7297,0.0805 -1.0423,0.2177 -0.3124,0.1369 -0.5806,0.3203 -0.8022,0.5522 -0.2217,0.2319 -0.3932,0.504 -0.5139,0.8144 -0.1211,0.3104 -0.1815,0.6412 -0.1815,0.9918 z m 6.1926,0 c 0,-0.3506 -0.0604,-0.6814 -0.1814,-0.9898 -0.1211,-0.3084 -0.2923,-0.5786 -0.5159,-0.8124 -0.224,-0.2336 -0.4921,-0.4193 -0.8045,-0.5562 -0.3124,-0.1372 -0.6591,-0.2098 -1.038,-0.2177 v 5.1585 c 0.3789,-0.004 0.7256,-0.0746 1.038,-0.2118 0.3124,-0.1369 0.5805,-0.3225 0.8045,-0.5564 0.2236,-0.2336 0.3948,-0.506 0.5159,-0.8164 0.121,-0.3104 0.1814,-0.6429 0.1814,-0.9978 z m 13.8427,0.2237 c 0,0.6491 -0.1029,1.2438 -0.3084,1.7861 -0.2055,0.5423 -0.4958,1.01 -0.8708,1.4012 -0.375,0.3909 -0.8246,0.6933 -1.3507,0.909 -0.5261,0.2157 -1.1086,0.3246 -1.7456,0.3246 -0.6372,0 -1.2178,-0.1089 -1.7419,-0.3246 -0.5241,-0.2157 -0.9737,-0.5181 -1.3484,-0.909 -0.375,-0.3912 -0.6653,-0.8589 -0.8708,-1.4012 -0.2058,-0.5423 -0.3087,-1.137 -0.3087,-1.7861 0,-0.6489 0.1029,-1.2456 0.3087,-1.7878 0.2055,-0.5423 0.4958,-1.01 0.8708,-1.4032 0.3747,-0.3931 0.8243,-0.6976 1.3484,-0.9153 0.5241,-0.2177 1.1047,-0.3265 1.7419,-0.3265 0.637,0 1.2195,0.1088 1.7456,0.3265 0.5261,0.2177 0.9757,0.5222 1.3507,0.9153 0.375,0.3932 0.6653,0.8609 0.8708,1.4032 0.2055,0.5422 0.3084,1.1389 0.3084,1.7878 z m -1.2033,0 c 0,-0.5321 -0.0726,-1.0097 -0.218,-1.4332 -0.1451,-0.4232 -0.3506,-0.7821 -0.6168,-1.0743 -0.2659,-0.2923 -0.5885,-0.5162 -0.9675,-0.6733 -0.379,-0.1573 -0.8025,-0.2358 -1.2699,-0.2358 -0.4637,0 -0.885,0.0785 -1.264,0.2358 -0.3789,0.1571 -0.7015,0.381 -0.9697,0.6733 -0.2681,0.2922 -0.4756,0.6511 -0.6208,1.0743 -0.1451,0.4235 -0.2177,0.9011 -0.2177,1.4332 0,0.5323 0.0726,1.008 0.2177,1.4295 0.1452,0.4212 0.3527,0.7781 0.6208,1.0704 0.2682,0.2922 0.5908,0.5159 0.9697,0.6712 0.379,0.1551 0.8003,0.2339 1.264,0.2339 0.4674,0 0.8909,-0.0788 1.2699,-0.2339 0.379,-0.1553 0.7016,-0.379 0.9675,-0.6712 0.2662,-0.2923 0.4717,-0.6492 0.6168,-1.0704 0.1454,-0.4215 0.218,-0.8972 0.218,-1.4295 z m 12.9963,4.3302 h -1.1733 v -3.943 h -4.6749 v 3.943 h -1.1732 v -8.6661 h 1.1732 v 3.8642 h 4.6749 v -3.8642 h 1.1733 z m 12.0044,-8.6661 v 7.7468 h 1.4148 v 2.679 c 0,0.1049 -0.0343,0.1897 -0.1029,0.254 -0.0686,0.0647 -0.1593,0.097 -0.2721,0.097 h -0.6951 v -2.1107 h -6.9851 v 1.7597 c 0,0.1049 -0.0343,0.1897 -0.1049,0.254 -0.0703,0.0647 -0.161,0.097 -0.2701,0.097 h -0.7013 v -3.03 h 0.883 c 0.1247,-0.0604 0.2497,-0.1593 0.3747,-0.2942 0.125,-0.1352 0.246,-0.3286 0.3609,-0.5806 0.115,-0.252 0.2216,-0.5686 0.3225,-0.9515 0.1009,-0.383 0.1936,-0.8527 0.2761,-1.4072 0.0828,-0.5541 0.1534,-1.2013 0.2138,-1.9431 0.0603,-0.7418 0.1068,-1.5988 0.1391,-2.5702 z m -4.0459,0.9252 c -0.0484,0.9919 -0.117,1.8607 -0.2077,2.6065 -0.0908,0.7458 -0.1976,1.391 -0.3184,1.9372 -0.121,0.5462 -0.2562,1.004 -0.4053,1.3728 -0.1491,0.3688 -0.3084,0.6713 -0.4777,0.9051 h 4.2755 v -6.8216 z m 22.2305,5.9508 c 0.0643,0 0.1207,0.0261 0.1692,0.0785 l 0.4657,0.502 c -0.3549,0.4114 -0.7843,0.732 -1.2903,0.9616 -0.506,0.2298 -1.1186,0.3447 -1.8363,0.3447 -0.6208,0 -1.1854,-0.1089 -1.6934,-0.3246 -0.508,-0.2157 -0.9414,-0.5179 -1.3003,-0.9071 -0.3588,-0.3889 -0.6369,-0.8546 -0.8345,-1.3989 -0.1976,-0.5443 -0.2962,-1.1429 -0.2962,-1.7963 0,-0.6531 0.1026,-1.2518 0.3084,-1.796 0.2055,-0.5443 0.4958,-1.012 0.8688,-1.4029 0.3731,-0.3912 0.8184,-0.6956 1.3385,-0.9113 0.5202,-0.2158 1.0945,-0.3226 1.7235,-0.3226 0.6168,0 1.1611,0.0989 1.6331,0.2965 0.4716,0.1975 0.8869,0.4654 1.2455,0.8042 l -0.3869,0.5383 c -0.0241,0.0402 -0.0545,0.0725 -0.0927,0.0986 -0.0383,0.0264 -0.0907,0.0405 -0.1554,0.0405 -0.0725,0 -0.1613,-0.0405 -0.2659,-0.119 -0.1048,-0.0785 -0.242,-0.1653 -0.4113,-0.2619 -0.1692,-0.097 -0.3809,-0.1857 -0.6349,-0.2642 -0.254,-0.0785 -0.5667,-0.1168 -0.9374,-0.1168 -0.4476,0 -0.8567,0.0765 -1.2277,0.2316 -0.3708,0.1553 -0.6894,0.381 -0.9576,0.6755 -0.2681,0.2942 -0.4776,0.6531 -0.627,1.0763 -0.1491,0.4235 -0.2236,0.9011 -0.2236,1.4332 0,0.5403 0.0785,1.0222 0.2338,1.4454 0.1553,0.4235 0.3668,0.7804 0.635,1.0726 0.2681,0.2923 0.5845,0.5159 0.9496,0.6693 0.3648,0.153 0.758,0.2296 1.1812,0.2296 0.2579,0 0.4918,-0.0159 0.6996,-0.0462 0.2075,-0.0304 0.3991,-0.0766 0.5743,-0.1412 0.1754,-0.0643 0.3387,-0.1471 0.4898,-0.2458 0.1514,-0.0989 0.3005,-0.2157 0.4496,-0.3529 0.0686,-0.0604 0.1372,-0.0907 0.2058,-0.0907 z m 12.9296,-2.5401 c 0,0.6491 -0.1029,1.2438 -0.3084,1.7861 -0.2055,0.5423 -0.4958,1.01 -0.8708,1.4012 -0.375,0.3909 -0.8246,0.6933 -1.3507,0.909 -0.5261,0.2157 -1.1086,0.3246 -1.7456,0.3246 -0.6372,0 -1.2177,-0.1089 -1.7419,-0.3246 -0.5241,-0.2157 -0.9737,-0.5181 -1.3484,-0.909 -0.375,-0.3912 -0.6653,-0.8589 -0.8708,-1.4012 -0.2058,-0.5423 -0.3087,-1.137 -0.3087,-1.7861 0,-0.6489 0.1029,-1.2456 0.3087,-1.7878 0.2055,-0.5423 0.4958,-1.01 0.8708,-1.4032 0.3747,-0.3931 0.8243,-0.6976 1.3484,-0.9153 0.5242,-0.2177 1.1047,-0.3265 1.7419,-0.3265 0.637,0 1.2195,0.1088 1.7456,0.3265 0.5261,0.2177 0.9757,0.5222 1.3507,0.9153 0.375,0.3932 0.6653,0.8609 0.8708,1.4032 0.2055,0.5422 0.3084,1.1389 0.3084,1.7878 z m -1.2033,0 c 0,-0.5321 -0.0725,-1.0097 -0.218,-1.4332 -0.1451,-0.4232 -0.3506,-0.7821 -0.6168,-1.0743 -0.2659,-0.2923 -0.5885,-0.5162 -0.9674,-0.6733 -0.379,-0.1573 -0.8025,-0.2358 -1.27,-0.2358 -0.4637,0 -0.8849,0.0785 -1.2639,0.2358 -0.379,0.1571 -0.7016,0.381 -0.9698,0.6733 -0.2681,0.2922 -0.4756,0.6511 -0.6208,1.0743 -0.1451,0.4235 -0.2177,0.9011 -0.2177,1.4332 0,0.5323 0.0726,1.008 0.2177,1.4295 0.1452,0.4212 0.3527,0.7781 0.6208,1.0704 0.2682,0.2922 0.5908,0.5159 0.9698,0.6712 0.379,0.1551 0.8002,0.2339 1.2639,0.2339 0.4675,0 0.891,-0.0788 1.27,-0.2339 0.3789,-0.1553 0.7015,-0.379 0.9674,-0.6712 0.2662,-0.2923 0.4717,-0.6492 0.6168,-1.0704 0.1455,-0.4215 0.218,-0.8972 0.218,-1.4295 z m 5.9749,4.3302 v -8.6661 h 1.1732 v 7.7468 h 4.3303 v -7.7468 h 1.1792 v 7.7468 h 1.3243 v 2.679 c 0,0.1049 -0.0343,0.1897 -0.1049,0.254 -0.0706,0.0647 -0.1613,0.097 -0.2701,0.097 h -0.7013 v -2.1107 z m 18.1548,-8.2973 c 0.0564,-0.0927 0.1289,-0.1774 0.2177,-0.254 0.0887,-0.0765 0.1916,-0.1148 0.3084,-0.1148 h 0.8711 v 8.6661 h -1.1733 v -6.1566 c 0,-0.1692 0.004,-0.3486 0.0119,-0.536 0.008,-0.1877 0.0264,-0.385 0.0544,-0.5947 -0.0683,0.1814 -0.1409,0.3486 -0.2197,0.504 -0.0785,0.155 -0.157,0.2922 -0.2338,0.409 l -4.064,6.0055 c -0.0565,0.0927 -0.129,0.1772 -0.2177,0.254 -0.0885,0.0765 -0.1914,0.1148 -0.3085,0.1148 h -0.8708 v -8.6661 h 1.1733 v 6.1625 c 0,0.1732 -0.004,0.3527 -0.0122,0.54 -0.008,0.1877 -0.0261,0.3892 -0.0544,0.603 0.0686,-0.1857 0.1431,-0.3569 0.2219,-0.5123 0.0786,-0.155 0.1551,-0.2942 0.2319,-0.4192 z m 13.7398,8.2973 h -0.9071 c -0.1049,0 -0.1894,-0.0261 -0.254,-0.0785 -0.0646,-0.0525 -0.1128,-0.1191 -0.1451,-0.1996 l -0.8105,-2.0925 h -3.8885 l -0.8104,2.0925 c -0.0241,0.0726 -0.0706,0.1369 -0.1389,0.1933 -0.0686,0.0564 -0.1554,0.0848 -0.2603,0.0848 h -0.9011 l 3.4654,-8.6661 h 1.1854 z m -5.6787,-3.2173 h 3.2355 l -1.3606,-3.5258 c -0.0445,-0.1048 -0.0868,-0.2256 -0.129,-0.3628 -0.0425,-0.1372 -0.0868,-0.2843 -0.1313,-0.4414 -0.0402,0.1571 -0.0805,0.3042 -0.1227,0.4434 -0.0425,0.1392 -0.0867,0.2622 -0.1312,0.3668 z m 16.6428,-5.4488 v 8.6661 h -1.1733 v -7.7409 h -2.8664 c -0.0564,1.1126 -0.1312,2.0784 -0.2259,2.8968 -0.0947,0.8183 -0.2095,1.5179 -0.3447,2.0985 -0.1349,0.5805 -0.2883,1.0522 -0.4595,1.4173 -0.1715,0.3648 -0.3588,0.6531 -0.5624,0.8626 -0.2038,0.2097 -0.4235,0.3529 -0.6573,0.4294 -0.2339,0.0765 -0.4816,0.1148 -0.7438,0.1148 -0.2177,0 -0.385,-0.0201 -0.502,-0.0584 -0.1168,-0.0383 -0.1752,-0.0947 -0.1752,-0.1712 v -0.7441 h 0.4232 c 0.1613,0 0.3206,-0.032 0.4776,-0.0947 0.1574,-0.0623 0.3087,-0.1873 0.4539,-0.377 0.1451,-0.1893 0.282,-0.4595 0.411,-0.8101 0.129,-0.3509 0.246,-0.8144 0.3509,-1.391 0.1049,-0.5765 0.1956,-1.2821 0.2721,-2.1146 0.0766,-0.8326 0.135,-1.8264 0.1752,-2.9835 z m 6.4769,0 v 3.7313 h 1.6872 c 0.5281,0 0.9839,0.0564 1.3668,0.1715 0.383,0.1148 0.6993,0.276 0.9474,0.4835 0.248,0.2078 0.4314,0.4556 0.5505,0.7419 0.1187,0.2863 0.1771,0.5986 0.1771,0.9374 0,0.3991 -0.0663,0.758 -0.2015,1.0786 -0.135,0.3206 -0.3325,0.5947 -0.5927,0.8203 -0.26,0.2259 -0.5806,0.3991 -0.9596,0.5202 -0.379,0.121 -0.8101,0.1814 -1.294,0.1814 h -2.8485 v -8.6661 z m 0,4.6627 v 3.0719 h 1.6812 c 0.3345,0 0.6228,-0.0382 0.8626,-0.1148 0.2401,-0.0765 0.4357,-0.1834 0.5868,-0.3183 0.151,-0.1352 0.2619,-0.2985 0.3325,-0.4901 0.0705,-0.1914 0.1048,-0.4011 0.1048,-0.6307 0,-0.2421 -0.0343,-0.4578 -0.1048,-0.6452 -0.0706,-0.1876 -0.1815,-0.3467 -0.3325,-0.4779 -0.1511,-0.131 -0.3467,-0.2296 -0.5845,-0.2962 -0.2382,-0.0666 -0.5242,-0.0987 -0.8589,-0.0987 z m 16.3043,4.0034 h -1.1733 v -3.943 h -4.6749 v 3.943 h -1.1732 v -8.6661 h 1.1732 v 3.8642 h 4.6749 v -3.8642 h 1.1733 z m 13.3166,-4.3302 c 0,0.6491 -0.1029,1.2438 -0.3084,1.7861 -0.2055,0.5423 -0.4958,1.01 -0.8708,1.4012 -0.375,0.3909 -0.8246,0.6933 -1.3507,0.909 -0.5261,0.2157 -1.1087,0.3246 -1.7456,0.3246 -0.6372,0 -1.2178,-0.1089 -1.7419,-0.3246 -0.5241,-0.2157 -0.9737,-0.5181 -1.3484,-0.909 -0.3751,-0.3912 -0.6653,-0.8589 -0.8708,-1.4012 -0.2058,-0.5423 -0.3087,-1.137 -0.3087,-1.7861 0,-0.6489 0.1029,-1.2456 0.3087,-1.7878 0.2055,-0.5423 0.4957,-1.01 0.8708,-1.4032 0.3747,-0.3931 0.8243,-0.6976 1.3484,-0.9153 0.5241,-0.2177 1.1047,-0.3265 1.7419,-0.3265 0.6369,0 1.2195,0.1088 1.7456,0.3265 0.5261,0.2177 0.9757,0.5222 1.3507,0.9153 0.375,0.3932 0.6653,0.8609 0.8708,1.4032 0.2055,0.5422 0.3084,1.1389 0.3084,1.7878 z m -1.2033,0 c 0,-0.5321 -0.0726,-1.0097 -0.218,-1.4332 -0.1451,-0.4232 -0.3506,-0.7821 -0.6168,-1.0743 -0.2659,-0.2923 -0.5885,-0.5162 -0.9675,-0.6733 -0.379,-0.1573 -0.8025,-0.2358 -1.2699,-0.2358 -0.4638,0 -0.885,0.0785 -1.264,0.2358 -0.379,0.1571 -0.7015,0.381 -0.9697,0.6733 -0.2682,0.2922 -0.4757,0.6511 -0.6208,1.0743 -0.1451,0.4235 -0.2177,0.9011 -0.2177,1.4332 0,0.5323 0.0726,1.008 0.2177,1.4295 0.1451,0.4212 0.3526,0.7781 0.6208,1.0704 0.2682,0.2922 0.5907,0.5159 0.9697,0.6712 0.379,0.1551 0.8002,0.2339 1.264,0.2339 0.4674,0 0.8909,-0.0788 1.2699,-0.2339 0.379,-0.1553 0.7016,-0.379 0.9675,-0.6712 0.2662,-0.2923 0.4717,-0.6492 0.6168,-1.0704 0.1454,-0.4215 0.218,-0.8972 0.218,-1.4295 z m 11.1937,-3.4107 h -4.0459 v 7.7409 h -1.1732 v -8.6661 h 5.2191 z m 11.9619,3.4107 c 0,0.6491 -0.1029,1.2438 -0.3084,1.7861 -0.2055,0.5423 -0.4957,1.01 -0.8708,1.4012 -0.375,0.3909 -0.8246,0.6933 -1.3507,0.909 -0.5261,0.2157 -1.1086,0.3246 -1.7456,0.3246 -0.6372,0 -1.2177,-0.1089 -1.7418,-0.3246 -0.5242,-0.2157 -0.9737,-0.5181 -1.3485,-0.909 -0.375,-0.3912 -0.6653,-0.8589 -0.8708,-1.4012 -0.2058,-0.5423 -0.3087,-1.137 -0.3087,-1.7861 0,-0.6489 0.1029,-1.2456 0.3087,-1.7878 0.2055,-0.5423 0.4958,-1.01 0.8708,-1.4032 0.3748,-0.3931 0.8243,-0.6976 1.3485,-0.9153 0.5241,-0.2177 1.1046,-0.3265 1.7418,-0.3265 0.637,0 1.2195,0.1088 1.7456,0.3265 0.5261,0.2177 0.9757,0.5222 1.3507,0.9153 0.3751,0.3932 0.6653,0.8609 0.8708,1.4032 0.2055,0.5422 0.3084,1.1389 0.3084,1.7878 z m -1.2033,0 c 0,-0.5321 -0.0725,-1.0097 -0.218,-1.4332 -0.1451,-0.4232 -0.3506,-0.7821 -0.6168,-1.0743 -0.2659,-0.2923 -0.5884,-0.5162 -0.9674,-0.6733 -0.379,-0.1573 -0.8025,-0.2358 -1.27,-0.2358 -0.4637,0 -0.8849,0.0785 -1.2639,0.2358 -0.379,0.1571 -0.7016,0.381 -0.9698,0.6733 -0.2681,0.2922 -0.4756,0.6511 -0.6207,1.0743 -0.1452,0.4235 -0.2177,0.9011 -0.2177,1.4332 0,0.5323 0.0725,1.008 0.2177,1.4295 0.1451,0.4212 0.3526,0.7781 0.6207,1.0704 0.2682,0.2922 0.5908,0.5159 0.9698,0.6712 0.379,0.1551 0.8002,0.2339 1.2639,0.2339 0.4675,0 0.891,-0.0788 1.27,-0.2339 0.379,-0.1553 0.7015,-0.379 0.9674,-0.6712 0.2662,-0.2923 0.4717,-0.6492 0.6168,-1.0704 0.1455,-0.4215 0.218,-0.8972 0.218,-1.4295 z m 13.3348,1.0888 v 3.2414 h -1.1673 v -8.6661 h 2.5582 c 0.5483,0 1.0259,0.0624 1.4312,0.1894 0.4051,0.127 0.7399,0.3084 1.0061,0.5422 0.2659,0.2339 0.4654,0.5162 0.5967,0.8467 0.1309,0.3306 0.1953,0.6996 0.1953,1.1067 0,0.4031 -0.0706,0.7721 -0.2115,1.1066 -0.1412,0.3348 -0.347,0.6231 -0.6191,0.8649 -0.2721,0.2421 -0.6086,0.4294 -1.0097,0.5644 -0.4014,0.1352 -0.8648,0.2038 -1.389,0.2038 z m 0,-0.9315 h 1.3909 c 0.3345,0 0.631,-0.0442 0.887,-0.1329 0.256,-0.0888 0.4717,-0.2138 0.6471,-0.3731 0.1752,-0.1593 0.3065,-0.3486 0.3949,-0.5703 0.0887,-0.222 0.1332,-0.4657 0.1332,-0.7319 0,-0.5522 -0.1695,-0.9836 -0.5099,-1.294 -0.3407,-0.3107 -0.8589,-0.4658 -1.5523,-0.4658 h -1.3909 z m 15.6328,4.1729 h -0.9071 c -0.1049,0 -0.1894,-0.0261 -0.254,-0.0785 -0.0646,-0.0525 -0.1128,-0.1191 -0.1451,-0.1996 l -0.8105,-2.0925 h -3.8885 l -0.8105,2.0925 c -0.0241,0.0726 -0.0705,0.1369 -0.1389,0.1933 -0.0686,0.0564 -0.1553,0.0848 -0.2602,0.0848 h -0.9011 l 3.4653,-8.6661 h 1.1855 z m -5.6787,-3.2173 h 3.2355 l -1.3607,-3.5258 c -0.0445,-0.1048 -0.0867,-0.2256 -0.1289,-0.3628 -0.0425,-0.1372 -0.0868,-0.2843 -0.1313,-0.4414 -0.0402,0.1571 -0.0805,0.3042 -0.1227,0.4434 -0.0425,0.1392 -0.0868,0.2622 -0.1313,0.3668 z m 14.9074,-3.3203 c 0,0.4354 -0.1068,0.8187 -0.3226,1.1492 -0.2157,0.3305 -0.5201,0.5888 -0.911,0.7742 0.2216,0.0926 0.4232,0.2055 0.6046,0.3387 0.1814,0.1329 0.3387,0.284 0.4697,0.4535 0.131,0.1693 0.2319,0.3547 0.3025,0.5562 0.0705,0.2018 0.1048,0.4133 0.1048,0.635 0,0.3789 -0.0705,0.7338 -0.2117,1.0644 -0.1412,0.3308 -0.3447,0.6168 -0.6129,0.8608 -0.2681,0.2438 -0.5986,0.4374 -0.9898,0.5786 -0.3909,0.1412 -0.8365,0.2117 -1.3365,0.2117 -0.6208,0 -1.1793,-0.1029 -1.675,-0.3064 -0.4961,-0.2038 -0.9213,-0.4779 -1.2762,-0.8246 l 0.3387,-0.5564 c 0.0324,-0.0442 0.0726,-0.0825 0.1208,-0.1128 0.0485,-0.0304 0.1009,-0.0443 0.1573,-0.0443 0.0848,0 0.1854,0.0443 0.3025,0.135 0.1168,0.0907 0.2662,0.1916 0.4476,0.3004 0.1814,0.1089 0.4031,0.2075 0.663,0.2982 0.2602,0.0908 0.5766,0.1372 0.9516,0.1372 0.3186,0 0.6046,-0.0382 0.8566,-0.115 0.252,-0.0766 0.4638,-0.1874 0.635,-0.3325 0.1715,-0.1452 0.3024,-0.3226 0.3931,-0.5321 0.0908,-0.2098 0.1353,-0.4456 0.1353,-0.7075 0,-0.226 -0.0426,-0.4335 -0.129,-0.6231 -0.0868,-0.1893 -0.2138,-0.3526 -0.379,-0.4878 -0.1656,-0.135 -0.3671,-0.2398 -0.6049,-0.3144 -0.2379,-0.0745 -0.506,-0.1108 -0.8042,-0.1108 h -1.1855 v -0.9618 h 1.137 c 0.2461,0 0.4757,-0.0301 0.6874,-0.0907 0.2118,-0.0604 0.3932,-0.1491 0.5443,-0.2659 0.1511,-0.1171 0.2701,-0.2602 0.3568,-0.4295 0.0868,-0.1692 0.129,-0.3628 0.129,-0.5805 0,-0.1976 -0.0402,-0.379 -0.121,-0.5443 -0.0805,-0.1652 -0.1976,-0.3084 -0.3507,-0.4274 -0.1533,-0.1191 -0.3407,-0.2098 -0.5624,-0.2741 -0.2216,-0.0647 -0.4736,-0.097 -0.756,-0.097 -0.3265,0 -0.6046,0.0343 -0.8345,0.1029 -0.2299,0.0686 -0.4235,0.1432 -0.5805,0.2259 -0.1573,0.0825 -0.2843,0.1591 -0.3833,0.2277 -0.0986,0.0686 -0.1853,0.1029 -0.2579,0.1029 -0.0644,0 -0.1168,-0.0142 -0.157,-0.0423 -0.0406,-0.0283 -0.0788,-0.0748 -0.1151,-0.1392 l -0.2843,-0.5504 c 0.3268,-0.2903 0.7055,-0.512 1.1369,-0.6651 0.4315,-0.1533 0.9213,-0.2298 1.4698,-0.2298 0.4473,0 0.8507,0.0544 1.2073,0.1632 0.3568,0.1089 0.6593,0.2622 0.9093,0.4595 0.25,0.1976 0.4434,0.4315 0.5786,0.7016 0.1349,0.2701 0.2015,0.5666 0.2015,0.8889 z m 5.0553,6.5376 v -8.6661 h 2.7638 c 0.5323,0 0.9918,0.0525 1.3768,0.1571 0.3852,0.1048 0.7016,0.2539 0.9496,0.4475 0.2477,0.1936 0.4294,0.4295 0.5462,0.7096 0.1168,0.2803 0.1755,0.5966 0.1755,0.9476 0,0.2137 -0.0323,0.4192 -0.0989,0.6168 -0.0664,0.1976 -0.1673,0.381 -0.3002,0.5502 -0.1332,0.1695 -0.3005,0.3206 -0.504,0.4535 -0.2038,0.1333 -0.4436,0.2421 -0.7178,0.3266 0.633,0.125 1.1107,0.3529 1.4332,0.6834 0.3226,0.3308 0.4839,0.7662 0.4839,1.3065 0,0.3668 -0.0666,0.7013 -0.2015,1.0038 -0.1352,0.3024 -0.3325,0.5624 -0.5927,0.7801 -0.26,0.2177 -0.5806,0.3849 -0.9596,0.504 -0.379,0.119 -0.8104,0.1794 -1.2943,0.1794 z m 1.1673,-3.949 v 3.0175 h 1.8746 c 0.3348,0 0.623,-0.0382 0.8648,-0.1148 0.2421,-0.0765 0.4417,-0.1854 0.5967,-0.3245 0.1554,-0.1392 0.2682,-0.3045 0.3407,-0.4958 0.0726,-0.1916 0.1089,-0.4011 0.1089,-0.631 0,-0.4476 -0.1593,-0.8025 -0.4776,-1.0624 -0.3187,-0.26 -0.7963,-0.389 -1.4335,-0.389 z m 0,-0.8348 h 1.548 c 0.3308,0 0.6191,-0.0362 0.8629,-0.1088 0.2441,-0.0726 0.4456,-0.1732 0.6049,-0.3022 0.159,-0.129 0.2761,-0.2863 0.3526,-0.4697 0.0766,-0.1834 0.1148,-0.3829 0.1148,-0.6009 0,-0.512 -0.153,-0.887 -0.4595,-1.1228 -0.3064,-0.2359 -0.782,-0.3527 -1.4272,-0.3527 h -1.5965 z m 15.3729,-3.5135 c 0.0564,-0.0927 0.129,-0.1774 0.2177,-0.254 0.0887,-0.0765 0.1916,-0.1148 0.3084,-0.1148 h 0.8711 v 8.6661 h -1.1733 v -6.1566 c 0,-0.1692 0.004,-0.3486 0.0119,-0.536 0.008,-0.1877 0.0264,-0.385 0.0544,-0.5947 -0.0683,0.1814 -0.1408,0.3486 -0.2196,0.504 -0.0786,0.155 -0.1571,0.2922 -0.2339,0.409 l -4.064,6.0055 c -0.0564,0.0927 -0.129,0.1772 -0.2177,0.254 -0.0885,0.0765 -0.1914,0.1148 -0.3084,0.1148 h -0.8708 v -8.6661 h 1.1732 v 6.1625 c 0,0.1732 -0.004,0.3527 -0.0122,0.54 -0.008,0.1877 -0.026,0.3892 -0.0544,0.603 0.0686,-0.1857 0.1432,-0.3569 0.222,-0.5123 0.0785,-0.155 0.155,-0.2942 0.2318,-0.4192 z m 12.5668,-0.3688 v 0.9856 h -2.806 v 7.6805 h -1.167 v -7.6805 h -2.8123 v -0.9856 z m 10.0026,0.3688 c 0.0564,-0.0927 0.129,-0.1774 0.2177,-0.254 0.0888,-0.0765 0.1917,-0.1148 0.3084,-0.1148 h 0.8711 v 8.6661 h -1.1732 v -6.1566 c 0,-0.1692 0.004,-0.3486 0.0119,-0.536 0.008,-0.1877 0.0263,-0.385 0.0544,-0.5947 -0.0683,0.1814 -0.1409,0.3486 -0.2197,0.504 -0.0785,0.155 -0.157,0.2922 -0.2338,0.409 l -4.0641,6.0055 c -0.0564,0.0927 -0.129,0.1772 -0.2177,0.254 -0.0884,0.0765 -0.1913,0.1148 -0.3084,0.1148 h -0.8708 v -8.6661 h 1.1733 v 6.1625 c 0,0.1732 -0.004,0.3527 -0.0122,0.54 -0.008,0.1877 -0.0261,0.3892 -0.0544,0.603 0.0686,-0.1857 0.1431,-0.3569 0.2219,-0.5123 0.0785,-0.155 0.1551,-0.2942 0.2319,-0.4192 z m 11.3695,8.2973 V 198.21 h -1.2458 c -0.1006,0.004 -0.1956,0.0162 -0.2843,0.0363 -0.0885,0.0202 -0.1752,0.0545 -0.26,0.1026 -0.0847,0.0485 -0.1672,0.1131 -0.25,0.1956 -0.0825,0.0828 -0.1672,0.1854 -0.252,0.3065 l -1.8808,2.673 c -0.0725,0.129 -0.1712,0.2299 -0.2962,0.3045 -0.125,0.0745 -0.2721,0.1128 -0.4416,0.1128 h -0.8827 l 2.2436,-3.1629 c 0.2418,-0.3549 0.5261,-0.6069 0.8526,-0.756 -0.3466,-0.0644 -0.6491,-0.1653 -0.907,-0.3022 -0.2583,-0.1372 -0.4717,-0.3044 -0.6432,-0.5 -0.1712,-0.1956 -0.3002,-0.4173 -0.385,-0.6673 -0.0847,-0.25 -0.127,-0.5201 -0.127,-0.8104 0,-0.3708 0.0686,-0.7075 0.2036,-1.01 0.1352,-0.3022 0.3328,-0.5624 0.5927,-0.7781 0.2599,-0.2157 0.5785,-0.383 0.9556,-0.502 0.377,-0.1188 0.8061,-0.1772 1.29,-0.1772 h 2.8848 v 8.6661 z m -3.6042,-6.2048 c 0,0.2418 0.0362,0.4575 0.1068,0.6492 0.0706,0.1913 0.1814,0.3546 0.3325,0.4878 0.1511,0.133 0.3467,0.2339 0.5868,0.3045 0.2398,0.0703 0.5261,0.1065 0.8606,0.1065 h 1.7175 v -3.0781 h -1.7175 c -0.3345,0 -0.6208,0.0363 -0.8586,0.1088 -0.2381,0.0726 -0.4334,0.1755 -0.5868,0.3104 -0.1531,0.1353 -0.2639,0.2965 -0.3345,0.4839 -0.0706,0.1874 -0.1068,0.3971 -0.1068,0.627 z" style="fill:#2a2a2a;fill-rule:evenodd" id="path6"/>
    <path d="m 179.9659,110.1138 c 7.7814,-3.9772 17.5972,-2.7353 24.1059,3.728 0.0172,0.017 0.5989,0.5989 0.6163,0.6161 l 2e-4,2e-4 h -2e-4 c -0.0385,0 -0.0825,0.004 -0.1313,0.0126 -4.7362,0.4257 -8.8787,2.9108 -11.525,6.5537 l -0.4132,0.243 c -3.7303,-4.2225 -7.9799,-7.9751 -12.6527,-11.1536 z" style="fill:#1dc6c3;fill-rule:evenodd" id="path8"/>
  </g>
</svg>