<?xml version="1.0" encoding="UTF-8" standalone="no"?>

<svg
   version="1.1"
   id="svg2"
   xml:space="preserve"
   width="492"
   height="125.33333"
   viewBox="0 0 492 125.33333"
   sodipodi:docname="Qumai_Logo_RGB.eps"
   xmlns:inkscape="http://www.inkscape.org/namespaces/inkscape"
   xmlns:sodipodi="http://sodipodi.sourceforge.net/DTD/sodipodi-0.dtd"
   xmlns="http://www.w3.org/2000/svg"
   xmlns:svg="http://www.w3.org/2000/svg"><defs
     id="defs6" /><sodipodi:namedview
     id="namedview4"
     pagecolor="#ffffff"
     bordercolor="#666666"
     borderopacity="1.0"
     inkscape:pageshadow="2"
     inkscape:pageopacity="0.0"
     inkscape:pagecheckerboard="0" /><g
     id="g8"
     inkscape:groupmode="layer"
     inkscape:label="ink_ext_XXXXXX"
     transform="matrix(1.3333333,0,0,-1.3333333,0,125.33333)"><g
       id="g10"
       transform="scale(0.1)"><path
         d="M 4.99219,914.652 H 560.594 c 181.91,0 339.582,-103.765 417.062,-255.332 H 260.324 C 119.891,659.32 4.99219,774.219 4.99219,914.652 Z M 1010.34,576.73 c 11.95,-41.332 18.36,-85.007 18.36,-130.187 0,-44.258 -6.15,-87.082 -17.63,-127.668 H 506.941 C 365.125,318.875 249.09,434.91 249.09,576.73 v 0 z M 977.516,233.48 C 922.676,126.387 827.781,43.2188 712.609,3.6875 c 31.336,23.3477 51.645,60.6758 51.645,102.3245 0,69.828 -55.184,125.582 -123.961,127.468 h 337.223"
         style="fill:#1dc6c3;fill-opacity:1;fill-rule:evenodd;stroke:none"
         id="path12" /><path
         d="m 1896.59,618.145 c 0,-26.379 -2.61,-51.52 -7.97,-75.559 -5.35,-24.043 -13.19,-46.711 -23.49,-67.867 -10.3,-21.156 -22.94,-40.528 -37.78,-58.25 -14.83,-17.723 -31.6,-33.52 -50.28,-47.258 l 151.67,-164.856 h -101.8 c -14.84,0 -28.03,1.926 -39.71,5.77 -11.67,3.848 -22.52,10.992 -32.41,21.43 l -81.2,90.261 c -26.65,-6.32 -54.4,-9.48 -83.25,-9.48 -45.89,0 -87.65,7.828 -125.29,23.355 -37.64,15.524 -69.92,36.817 -96.85,64.02 -26.93,27.199 -47.67,59.48 -62.37,96.852 -14.7,37.367 -22.12,77.894 -22.12,121.582 0,43.687 7.42,84.21 22.12,121.441 14.7,37.23 35.44,69.375 62.37,96.578 26.93,27.199 59.21,48.633 96.85,64.156 37.64,15.528 79.4,23.219 125.29,23.219 45.89,0 87.65,-7.691 125.29,-23.219 37.64,-15.523 69.93,-36.957 96.72,-64.293 26.78,-27.339 47.53,-59.625 62.23,-96.855 14.7,-37.227 21.98,-77.617 21.98,-121.027 z m -126.53,0 c 0,31.32 -4.12,59.484 -12.36,84.347 -8.24,24.867 -20.06,46.024 -35.58,63.473 -15.53,17.445 -34.35,30.773 -56.47,39.976 -22.11,9.204 -47.26,13.735 -75.28,13.735 -28.03,0 -53.16,-4.531 -75.42,-13.735 -22.26,-9.203 -41.07,-22.531 -56.6,-39.976 -15.53,-17.449 -27.47,-38.606 -35.72,-63.473 -8.24,-24.863 -12.36,-53.027 -12.36,-84.347 0,-31.598 4.12,-59.762 12.36,-84.629 8.25,-24.864 20.19,-46.02 35.72,-63.328 15.53,-17.309 34.34,-30.5 56.6,-39.704 22.26,-9.203 47.39,-13.879 75.42,-13.879 28.02,0 53.17,4.676 75.28,13.879 22.12,9.204 40.94,22.395 56.47,39.704 15.52,17.308 27.34,38.464 35.58,63.328 8.24,24.867 12.36,53.031 12.36,84.629 z m 306.23,125.699 V 473.895 c 0,-23.629 5.49,-41.899 16.34,-54.95 10.85,-13.054 26.93,-19.648 48.36,-19.648 15.94,0 30.91,3.574 44.92,10.578 14.01,7.008 27.34,16.488 39.98,28.574 v 305.395 h 113.75 v -424.91 h -70.07 c -14.55,0 -23.9,6.589 -28.02,19.777 l -7.42,29.676 c -17.04,-16.762 -35.58,-30.227 -55.77,-40.528 -20.2,-10.3 -44.24,-15.523 -71.99,-15.523 -23.08,0 -43.55,3.984 -61.55,11.953 -18,7.969 -33.11,19.094 -45.19,33.379 -12.09,14.293 -21.3,31.324 -27.62,51.109 -6.32,19.782 -9.48,41.489 -9.48,65.118 v 269.949 z m 357.32,-424.91 v 424.91 h 70.06 c 14.29,0 23.77,-6.594 28.44,-19.781 l 6.59,-27.614 c 7.42,7.696 15.11,14.836 22.94,21.43 7.84,6.594 16.22,12.367 25.28,17.172 9.07,4.812 18.96,8.519 29.54,11.265 10.58,2.747 21.98,4.125 34.34,4.125 26.11,0 47.67,-6.871 64.71,-20.746 17.04,-13.875 29.95,-32.422 38.74,-55.5 6.87,13.461 15.39,25.141 25.42,34.895 10.03,9.75 21.01,17.582 32.97,23.625 11.95,6.047 24.59,10.582 37.91,13.465 13.33,2.883 26.66,4.261 40.12,4.261 23.9,0 45.06,-3.574 63.47,-10.718 18.41,-7.141 33.93,-17.586 46.43,-31.457 12.5,-13.875 21.98,-30.914 28.58,-50.973 6.59,-20.055 9.89,-42.859 9.89,-68.414 V 318.934 h -113.75 v 269.945 c 0,49.734 -21.29,74.598 -63.88,74.598 -9.62,0 -18.41,-1.508 -26.52,-4.672 -8.1,-3.157 -15.25,-7.965 -21.43,-14.282 -6.18,-6.324 -10.99,-14.156 -14.42,-23.496 -3.44,-9.343 -5.22,-20.058 -5.22,-32.148 V 318.934 h -113.75 v 269.945 c 0,26.93 -5.22,46.164 -15.8,57.566 -10.58,11.399 -26.24,17.032 -46.85,17.032 -13.19,0 -25.55,-3.02 -37.23,-9.204 -11.67,-6.183 -22.67,-14.835 -32.83,-25.828 V 318.934 Z m 976.35,0 c -10.71,0 -18.82,1.507 -24.45,4.531 -5.63,3.019 -10.3,9.344 -13.87,18.957 l -9.07,26.789 c -10.72,-9.34 -21.02,-17.445 -31.05,-24.453 -10.03,-7.008 -20.47,-12.914 -31.32,-17.723 -10.86,-4.808 -22.4,-8.515 -34.62,-10.988 -12.23,-2.477 -25.83,-3.711 -40.67,-3.711 -18.68,0 -35.71,2.473 -51.1,7.418 -15.39,4.945 -28.58,12.363 -39.7,22.117 -11.13,9.754 -19.79,21.844 -25.83,36.406 -6.05,14.567 -9.07,31.325 -9.07,50.282 0,15.66 3.99,31.324 11.95,46.843 7.97,15.528 21.71,29.676 41.08,42.453 19.37,12.778 45.2,23.356 77.48,31.875 32.28,8.516 72.67,13.325 121.31,14.422 v 21.844 c 0,26.652 -5.63,46.297 -16.9,58.797 -11.27,12.5 -27.47,18.684 -48.63,18.684 -15.66,0 -28.71,-1.786 -39.16,-5.493 -10.44,-3.711 -19.5,-7.695 -27.33,-11.953 -7.83,-4.258 -15.26,-8.242 -22.12,-11.953 -6.87,-3.711 -14.84,-5.633 -23.91,-5.633 -7.96,0 -14.56,2.063 -19.91,6.047 -5.36,3.985 -9.9,8.653 -13.47,14.149 l -20.19,36.269 c 25,22.531 52.61,39.426 82.84,50.555 30.22,11.129 62.91,16.625 98.09,16.625 25.27,0 47.94,-4.125 67.86,-12.367 19.92,-8.239 36.82,-19.645 50.69,-34.344 13.88,-14.699 24.46,-32.285 31.88,-52.617 7.41,-20.332 11.12,-42.586 11.12,-66.766 V 318.934 Z m -149.6,70.058 c 18.68,0 35.03,3.438 49.04,10.168 14.01,6.731 27.89,17.035 41.63,31.047 v 65.945 c -27.75,-1.101 -50.83,-3.437 -69.24,-7.007 -18.41,-3.575 -32.97,-7.969 -43.83,-13.329 -10.85,-5.355 -18.54,-11.539 -23.08,-18.546 -4.53,-7.004 -6.86,-14.696 -6.86,-22.938 0,-16.488 4.67,-28.164 13.87,-35.035 9.21,-6.867 21.98,-10.305 38.47,-10.305 z m 407.6,354.852 v -424.91 h -113.75 v 424.91 z m 13.6,120.758 c 0,-9.618 -1.92,-18.547 -5.76,-26.789 -3.85,-8.243 -8.94,-15.52 -15.39,-21.844 -6.46,-6.321 -14.02,-11.266 -22.67,-14.836 -8.65,-3.57 -18,-5.356 -27.89,-5.356 -9.34,0 -18.13,1.786 -26.51,5.356 -8.38,3.57 -15.8,8.515 -22.12,14.836 -6.32,6.324 -11.27,13.601 -14.97,21.844 -3.71,8.242 -5.64,17.171 -5.64,26.789 0,9.617 1.93,18.683 5.64,27.066 3.7,8.379 8.65,15.66 14.97,21.977 6.32,6.32 13.74,11.265 22.12,14.839 8.38,3.571 17.17,5.36 26.51,5.36 9.89,0 19.24,-1.789 27.89,-5.36 8.65,-3.574 16.21,-8.519 22.67,-14.839 6.45,-6.317 11.54,-13.598 15.39,-21.977 3.84,-8.383 5.76,-17.449 5.76,-27.066"
         style="fill:#2a2a2a;fill-opacity:1;fill-rule:nonzero;stroke:none"
         id="path14" /><path
         d="m 1435.82,91.2344 c 4.49,-0.0977 8.58,-0.8985 12.29,-2.4219 3.69,-1.5234 6.87,-3.5703 9.51,-6.125 2.64,-2.5586 4.68,-5.5195 6.14,-8.9102 1.46,-3.3906 2.18,-7.0078 2.18,-10.8437 0,-3.8633 -0.72,-7.4961 -2.18,-10.9023 -1.46,-3.4102 -3.5,-6.3907 -6.14,-8.9571 -2.64,-2.5742 -5.82,-4.6367 -9.51,-6.1758 -3.71,-1.5429 -7.8,-2.3593 -12.29,-2.457 v -8.5 h -9.04 v 8.5 c -4.52,0.0977 -8.63,0.9141 -12.33,2.457 -3.7,1.5391 -6.86,3.6016 -9.5,6.1758 -2.63,2.5664 -4.68,5.5469 -6.14,8.9571 -1.46,3.4062 -2.19,7.039 -2.19,10.9023 0,3.8359 0.73,7.4531 2.21,10.8437 1.47,3.3907 3.53,6.3516 6.19,8.9102 2.65,2.5547 5.82,4.6016 9.53,6.125 3.7,1.5234 7.78,2.3242 12.23,2.4219 v 8.3047 h 9.04 z m -29.68,-28.3008 c 0,-2.8789 0.5,-5.582 1.48,-8.1016 0.98,-2.5234 2.38,-4.7343 4.17,-6.6328 1.81,-1.9023 3.98,-3.4101 6.53,-4.5234 2.54,-1.1133 5.35,-1.6875 8.46,-1.7188 v 41.9102 c -3.11,-0.0664 -5.92,-0.6563 -8.46,-1.7695 -2.55,-1.1133 -4.72,-2.6055 -6.53,-4.4883 -1.79,-1.8828 -3.19,-4.0938 -4.17,-6.6172 -0.98,-2.5195 -1.48,-5.207 -1.48,-8.0586 z m 50.31,0 c 0,2.8516 -0.49,5.5391 -1.47,8.043 -0.98,2.5078 -2.37,4.6992 -4.19,6.6015 -1.82,1.8985 -4,3.4063 -6.54,4.5196 -2.53,1.1132 -5.35,1.7031 -8.43,1.7695 V 41.957 c 3.08,0.0313 5.9,0.6055 8.43,1.7188 2.54,1.1133 4.72,2.6211 6.54,4.5234 1.82,1.8985 3.21,4.1094 4.19,6.6328 0.98,2.5196 1.47,5.2227 1.47,8.1016 z m 112.46,-1.8164 c 0,-5.2734 -0.83,-10.1016 -2.5,-14.5078 -1.67,-4.4063 -4.03,-8.2071 -7.08,-11.3828 -3.04,-3.1758 -6.7,-5.6328 -10.97,-7.3828 -4.27,-1.754 -9,-2.6407 -14.18,-2.6407 -5.18,0 -9.89,0.8867 -14.15,2.6407 -4.26,1.75 -7.91,4.207 -10.96,7.3828 -3.04,3.1757 -5.4,6.9765 -7.07,11.3828 -1.67,4.4062 -2.51,9.2344 -2.51,14.5078 0,5.2734 0.84,10.1211 2.51,14.5234 1.67,4.4102 4.03,8.2071 7.07,11.4024 3.05,3.1914 6.7,5.664 10.96,7.4375 4.26,1.7656 8.97,2.6484 14.15,2.6484 5.18,0 9.91,-0.8828 14.18,-2.6484 4.27,-1.7735 7.93,-4.2461 10.97,-7.4375 3.05,-3.1953 5.41,-6.9922 7.08,-11.4024 1.67,-4.4023 2.5,-9.25 2.5,-14.5234 z m -9.77,0 c 0,4.3242 -0.59,8.2031 -1.77,11.6445 -1.18,3.4375 -2.85,6.3516 -5.01,8.7305 -2.16,2.375 -4.79,4.1914 -7.86,5.4648 -3.08,1.2813 -6.52,1.9219 -10.32,1.9219 -3.77,0 -7.19,-0.6406 -10.27,-1.9219 -3.08,-1.2734 -5.7,-3.0898 -7.87,-5.4648 -2.18,-2.3789 -3.87,-5.293 -5.05,-8.7305 -1.18,-3.4414 -1.77,-7.3203 -1.77,-11.6445 0,-4.3203 0.59,-8.1875 1.77,-11.6094 1.18,-3.4219 2.87,-6.3203 5.05,-8.6992 2.17,-2.3711 4.79,-4.1914 7.87,-5.4531 3.08,-1.2617 6.5,-1.8985 10.27,-1.8985 3.8,0 7.24,0.6368 10.32,1.8985 3.07,1.2617 5.7,3.082 7.86,5.4531 2.16,2.3789 3.83,5.2773 5.01,8.6992 1.18,3.4219 1.77,7.2891 1.77,11.6094 z m 105.57,-35.1758 h -9.52 v 32.0313 h -37.98 V 25.9414 h -9.53 v 70.4024 h 9.53 V 64.9492 h 37.98 v 31.3946 h 9.52 z m 97.53,70.4024 V 33.4102 h 11.5 V 11.6445 c 0,-0.8515 -0.28,-1.539 -0.84,-2.06247 -0.56,-0.52344 -1.29,-0.78515 -2.21,-0.78515 h -5.65 V 25.9414 H 1708.3 V 11.6445 c 0,-0.8515 -0.28,-1.539 -0.86,-2.06247 -0.57,-0.52344 -1.31,-0.78515 -2.19,-0.78515 h -5.7 V 33.4102 h 7.17 c 1.02,0.4882 2.03,1.2929 3.05,2.3867 1.02,1.1015 2,2.6719 2.93,4.7187 0.93,2.0469 1.8,4.6172 2.62,7.7305 0.82,3.1133 1.57,6.9258 2.24,11.4336 0.68,4.5 1.25,9.7578 1.74,15.7851 0.49,6.0274 0.87,12.9883 1.13,20.879 z m -32.87,-7.5157 c -0.39,-8.0586 -0.95,-15.1172 -1.69,-21.1758 -0.73,-6.0585 -1.6,-11.3007 -2.58,-15.7382 -0.98,-4.4375 -2.08,-8.1563 -3.3,-11.1524 -1.21,-3 -2.5,-5.4531 -3.87,-7.3515 h 34.73 v 55.4179 z m 180.6,-48.3437 c 0.53,0 0.98,-0.211 1.38,-0.6406 l 3.78,-4.0743 c -2.88,-3.3437 -6.37,-5.9453 -10.48,-7.8125 -4.11,-1.8672 -9.09,-2.8007 -14.92,-2.8007 -5.04,0 -9.63,0.8828 -13.76,2.6328 -4.12,1.7578 -7.65,4.2109 -10.56,7.3711 -2.91,3.1601 -5.18,6.9453 -6.78,11.3671 -1.61,4.4219 -2.4,9.2852 -2.4,14.5899 0,5.3086 0.83,10.1719 2.5,14.5937 1.67,4.418 4.03,8.2188 7.06,11.3985 3.03,3.1758 6.65,5.6484 10.87,7.4023 4.23,1.75 8.89,2.6172 14,2.6172 5.02,0 9.44,-0.8008 13.27,-2.4062 3.83,-1.6055 7.21,-3.7852 10.12,-6.5352 l -3.14,-4.3711 c -0.2,-0.3281 -0.45,-0.5898 -0.76,-0.8008 -0.31,-0.2109 -0.73,-0.3281 -1.26,-0.3281 -0.59,0 -1.31,0.3281 -2.16,0.9648 -0.85,0.6407 -1.96,1.3438 -3.34,2.129 -1.38,0.7851 -3.09,1.5078 -5.16,2.1484 -2.06,0.6367 -4.6,0.9492 -7.62,0.9492 -3.63,0 -6.96,-0.625 -9.97,-1.8867 -3.01,-1.2578 -5.6,-3.0938 -7.78,-5.4844 -2.18,-2.3945 -3.88,-5.3086 -5.09,-8.7461 -1.21,-3.4414 -1.82,-7.3203 -1.82,-11.6445 0,-4.3867 0.64,-8.3008 1.9,-11.7422 1.26,-3.4414 2.98,-6.3359 5.16,-8.7109 2.18,-2.375 4.75,-4.1953 7.71,-5.4375 2.97,-1.2461 6.16,-1.8672 9.6,-1.8672 2.1,0 4,0.1328 5.68,0.3789 1.69,0.2422 3.25,0.6211 4.67,1.1445 1.42,0.5235 2.75,1.1953 3.98,2 1.23,0.8008 2.44,1.75 3.65,2.8633 0.56,0.4922 1.12,0.7383 1.67,0.7383 z m 105.04,20.6328 c 0,-5.2734 -0.83,-10.1016 -2.51,-14.5078 -1.66,-4.4063 -4.02,-8.2071 -7.07,-11.3828 -3.04,-3.1758 -6.7,-5.6328 -10.97,-7.3828 -4.28,-1.754 -9.01,-2.6407 -14.18,-2.6407 -5.18,0 -9.9,0.8867 -14.15,2.6407 -4.26,1.75 -7.92,4.207 -10.96,7.3828 -3.04,3.1757 -5.4,6.9765 -7.08,11.3828 -1.66,4.4062 -2.5,9.2344 -2.5,14.5078 0,5.2734 0.84,10.1211 2.5,14.5234 1.68,4.4102 4.04,8.2071 7.08,11.4024 3.04,3.1914 6.7,5.664 10.96,7.4375 4.25,1.7656 8.97,2.6484 14.15,2.6484 5.17,0 9.9,-0.8828 14.18,-2.6484 4.27,-1.7735 7.93,-4.2461 10.97,-7.4375 3.05,-3.1953 5.41,-6.9922 7.07,-11.4024 1.68,-4.4023 2.51,-9.25 2.51,-14.5234 z m -9.78,0 c 0,4.3242 -0.59,8.2031 -1.77,11.6445 -1.17,3.4375 -2.84,6.3516 -5.01,8.7305 -2.16,2.375 -4.78,4.1914 -7.86,5.4648 -3.07,1.2813 -6.52,1.9219 -10.31,1.9219 -3.77,0 -7.19,-0.6406 -10.27,-1.9219 -3.08,-1.2734 -5.7,-3.0898 -7.88,-5.4648 -2.18,-2.3789 -3.86,-5.293 -5.04,-8.7305 -1.18,-3.4414 -1.77,-7.3203 -1.77,-11.6445 0,-4.3203 0.59,-8.1875 1.77,-11.6094 1.18,-3.4219 2.86,-6.3203 5.04,-8.6992 2.18,-2.3711 4.8,-4.1914 7.88,-5.4531 3.08,-1.2617 6.5,-1.8985 10.27,-1.8985 3.79,0 7.24,0.6368 10.31,1.8985 3.08,1.2617 5.7,3.082 7.86,5.4531 2.17,2.3789 3.84,5.2773 5.01,8.6992 1.18,3.4219 1.77,7.2891 1.77,11.6094 z m 48.54,-35.1758 v 70.4024 h 9.53 V 33.4102 h 35.18 v 62.9336 h 9.58 V 33.4102 h 10.76 V 11.6445 c 0,-0.8515 -0.28,-1.539 -0.85,-2.06247 -0.57,-0.52344 -1.31,-0.78515 -2.19,-0.78515 h -5.71 V 25.9414 Z m 147.49,67.4063 c 0.46,0.7539 1.05,1.4414 1.77,2.0625 0.72,0.625 1.56,0.9336 2.51,0.9336 h 7.07 V 25.9414 h -9.53 v 50.0117 c 0,1.3789 0.03,2.836 0.1,4.3594 0.06,1.5195 0.21,3.1289 0.44,4.832 -0.56,-1.4726 -1.15,-2.8359 -1.78,-4.0976 -0.64,-1.2617 -1.28,-2.375 -1.91,-3.3242 l -33.01,-48.7852 c -0.46,-0.7539 -1.05,-1.4414 -1.77,-2.0625 -0.72,-0.625 -1.56,-0.9336 -2.51,-0.9336 h -7.07 v 70.4024 h 9.53 V 46.2813 c 0,-1.4102 -0.03,-2.8672 -0.1,-4.3868 -0.06,-1.5273 -0.21,-3.164 -0.44,-4.8984 0.56,1.5039 1.16,2.8984 1.8,4.1602 0.64,1.2617 1.27,2.3906 1.89,3.4062 z m 111.62,-67.4063 h -7.36 c -0.86,0 -1.54,0.2149 -2.07,0.6406 -0.52,0.4219 -0.91,0.9649 -1.18,1.6211 l -6.58,16.9961 h -31.59 l -6.58,-16.9961 c -0.2,-0.5898 -0.58,-1.1133 -1.13,-1.5742 -0.56,-0.457 -1.26,-0.6875 -2.12,-0.6875 h -7.32 l 28.15,70.4024 h 9.63 z m -46.13,26.1367 h 26.29 l -11.06,28.6446 c -0.36,0.8515 -0.7,1.832 -1.05,2.9492 -0.34,1.1094 -0.7,2.3047 -1.06,3.5859 -0.33,-1.2812 -0.66,-2.4765 -1,-3.6055 -0.34,-1.1289 -0.71,-2.1289 -1.06,-2.9804 z m 135.21,44.2657 V 25.9414 h -9.53 v 62.8867 h -23.29 c -0.46,-9.0429 -1.07,-16.8867 -1.84,-23.5312 -0.76,-6.6524 -1.7,-12.336 -2.8,-17.0508 -1.09,-4.7188 -2.34,-8.5469 -3.73,-11.5117 -1.39,-2.9649 -2.91,-5.3086 -4.57,-7.0117 -1.65,-1.7032 -3.43,-2.8633 -5.34,-3.4883 -1.9,-0.6211 -3.91,-0.9336 -6.04,-0.9336 -1.77,0 -3.13,0.164 -4.08,0.4765 -0.95,0.3125 -1.42,0.7696 -1.42,1.3946 v 6.0429 h 3.43 c 1.32,0 2.61,0.2579 3.89,0.7657 1.27,0.5078 2.5,1.5273 3.68,3.0625 1.18,1.5429 2.29,3.7343 3.34,6.5859 1.05,2.8477 2,6.6133 2.85,11.2969 0.85,4.6875 1.59,10.418 2.21,17.1836 0.63,6.7617 1.1,14.8359 1.43,24.2344 z m 52.61,0 V 66.0313 h 13.72 c 4.28,0 7.98,-0.461 11.1,-1.3946 3.11,-0.9297 5.68,-2.2422 7.69,-3.9258 2.02,-1.6875 3.51,-3.7031 4.47,-6.0273 0.97,-2.3281 1.45,-4.8633 1.45,-7.6172 0,-3.2422 -0.54,-6.1562 -1.64,-8.7617 -1.1,-2.6016 -2.71,-4.832 -4.82,-6.6641 -2.11,-1.8359 -4.72,-3.2422 -7.79,-4.2265 -3.08,-0.9805 -6.59,-1.4727 -10.52,-1.4727 h -23.14 v 70.4024 z m 0,-37.879 v -24.957 h 13.66 c 2.72,0 5.07,0.3086 7.01,0.9336 1.96,0.6211 3.54,1.4922 4.77,2.5859 1.23,1.0977 2.13,2.4219 2.7,3.9805 0.58,1.5547 0.85,3.2578 0.85,5.125 0,1.9649 -0.27,3.7188 -0.85,5.2422 -0.57,1.5234 -1.47,2.8164 -2.7,3.8789 -1.23,1.0664 -2.81,1.8711 -4.75,2.4102 -1.93,0.539 -4.26,0.8007 -6.97,0.8007 z m 132.46,-32.5234 h -9.53 v 32.0313 h -37.98 V 25.9414 h -9.53 v 70.4024 h 9.53 V 64.9492 h 37.98 v 31.3946 h 9.53 z m 108.18,35.1758 c 0,-5.2734 -0.83,-10.1016 -2.5,-14.5078 -1.67,-4.4063 -4.03,-8.2071 -7.08,-11.3828 -3.04,-3.1758 -6.69,-5.6328 -10.97,-7.3828 -4.27,-1.754 -9,-2.6407 -14.18,-2.6407 -5.18,0 -9.89,0.8867 -14.15,2.6407 -4.26,1.75 -7.91,4.207 -10.95,7.3828 -3.05,3.1757 -5.41,6.9765 -7.08,11.3828 -1.67,4.4062 -2.51,9.2344 -2.51,14.5078 0,5.2734 0.84,10.1211 2.51,14.5234 1.67,4.4102 4.03,8.2071 7.08,11.4024 3.04,3.1914 6.69,5.664 10.95,7.4375 4.26,1.7656 8.97,2.6484 14.15,2.6484 5.18,0 9.91,-0.8828 14.18,-2.6484 4.28,-1.7735 7.93,-4.2461 10.97,-7.4375 3.05,-3.1953 5.41,-6.9922 7.08,-11.4024 1.67,-4.4023 2.5,-9.25 2.5,-14.5234 z m -9.77,0 c 0,4.3242 -0.59,8.2031 -1.77,11.6445 -1.18,3.4375 -2.85,6.3516 -5.01,8.7305 -2.16,2.375 -4.78,4.1914 -7.86,5.4648 -3.08,1.2813 -6.52,1.9219 -10.32,1.9219 -3.77,0 -7.19,-0.6406 -10.27,-1.9219 -3.08,-1.2734 -5.7,-3.0898 -7.87,-5.4648 -2.18,-2.3789 -3.87,-5.293 -5.05,-8.7305 -1.18,-3.4414 -1.77,-7.3203 -1.77,-11.6445 0,-4.3203 0.59,-8.1875 1.77,-11.6094 1.18,-3.4219 2.87,-6.3203 5.05,-8.6992 2.17,-2.3711 4.79,-4.1914 7.87,-5.4531 3.08,-1.2617 6.5,-1.8985 10.27,-1.8985 3.8,0 7.24,0.6368 10.32,1.8985 3.08,1.2617 5.7,3.082 7.86,5.4531 2.16,2.3789 3.83,5.2773 5.01,8.6992 1.18,3.4219 1.77,7.2891 1.77,11.6094 z m 90.94,27.7109 h -32.87 V 25.9414 h -9.53 v 70.4024 h 42.4 z m 97.17,-27.7109 c 0,-5.2734 -0.83,-10.1016 -2.5,-14.5078 -1.67,-4.4063 -4.03,-8.2071 -7.07,-11.3828 -3.05,-3.1758 -6.7,-5.6328 -10.98,-7.3828 -4.27,-1.754 -9,-2.6407 -14.18,-2.6407 -5.17,0 -9.89,0.8867 -14.15,2.6407 -4.26,1.75 -7.91,4.207 -10.95,7.3828 -3.05,3.1757 -5.41,6.9765 -7.08,11.3828 -1.67,4.4062 -2.5,9.2344 -2.5,14.5078 0,5.2734 0.83,10.1211 2.5,14.5234 1.67,4.4102 4.03,8.2071 7.08,11.4024 3.04,3.1914 6.69,5.664 10.95,7.4375 4.26,1.7656 8.98,2.6484 14.15,2.6484 5.18,0 9.91,-0.8828 14.18,-2.6484 4.28,-1.7735 7.93,-4.2461 10.98,-7.4375 3.04,-3.1953 5.4,-6.9922 7.07,-11.4024 1.67,-4.4023 2.5,-9.25 2.5,-14.5234 z m -9.77,0 c 0,4.3242 -0.59,8.2031 -1.77,11.6445 -1.18,3.4375 -2.85,6.3516 -5.01,8.7305 -2.16,2.375 -4.78,4.1914 -7.86,5.4648 -3.08,1.2813 -6.52,1.9219 -10.32,1.9219 -3.77,0 -7.19,-0.6406 -10.27,-1.9219 -3.07,-1.2734 -5.7,-3.0898 -7.87,-5.4648 -2.18,-2.3789 -3.87,-5.293 -5.05,-8.7305 -1.18,-3.4414 -1.77,-7.3203 -1.77,-11.6445 0,-4.3203 0.59,-8.1875 1.77,-11.6094 1.18,-3.4219 2.87,-6.3203 5.05,-8.6992 2.17,-2.3711 4.8,-4.1914 7.87,-5.4531 3.08,-1.2617 6.5,-1.8985 10.27,-1.8985 3.8,0 7.24,0.6368 10.32,1.8985 3.08,1.2617 5.7,3.082 7.86,5.4531 2.16,2.3789 3.83,5.2773 5.01,8.6992 1.18,3.4219 1.77,7.2891 1.77,11.6094 z m 108.33,-8.8399 V 25.9414 h -9.48 v 70.4024 h 20.78 c 4.45,0 8.33,-0.5079 11.63,-1.5391 3.29,-1.0313 6.01,-2.5039 8.17,-4.4063 2.16,-1.8984 3.78,-4.1914 4.84,-6.875 1.07,-2.6875 1.59,-5.6836 1.59,-8.9921 0,-3.2774 -0.57,-6.2735 -1.71,-8.9922 -1.15,-2.7188 -2.82,-5.0586 -5.04,-7.0235 -2.2,-1.9687 -4.94,-3.4883 -8.2,-4.5859 -3.26,-1.0977 -7.02,-1.6524 -11.28,-1.6524 z m 0,7.5665 h 11.3 c 2.72,0 5.13,0.3554 7.21,1.0781 2.08,0.7187 3.83,1.7344 5.25,3.0312 1.43,1.293 2.49,2.8321 3.21,4.6328 0.72,1.8008 1.08,3.7813 1.08,5.9454 0,4.4882 -1.37,7.9921 -4.14,10.5156 -2.77,2.5195 -6.98,3.7812 -12.61,3.7812 h -11.3 z m 127,-33.9024 h -7.37 c -0.85,0 -1.54,0.2149 -2.06,0.6406 -0.53,0.4219 -0.92,0.9649 -1.18,1.6211 l -6.59,16.9961 h -31.59 l -6.58,-16.9961 c -0.2,-0.5898 -0.57,-1.1133 -1.13,-1.5742 -0.56,-0.457 -1.26,-0.6875 -2.11,-0.6875 h -7.32 l 28.15,70.4024 h 9.63 z m -46.13,26.1367 h 26.28 l -11.05,28.6446 c -0.36,0.8515 -0.71,1.832 -1.05,2.9492 -0.35,1.1094 -0.71,2.3047 -1.07,3.5859 -0.32,-1.2812 -0.65,-2.4765 -1,-3.6055 -0.34,-1.1289 -0.7,-2.1289 -1.06,-2.9804 z m 121.1,26.9727 c 0,-3.5391 -0.87,-6.6485 -2.62,-9.336 -1.75,-2.6835 -4.22,-4.7812 -7.4,-6.2851 1.8,-0.7539 3.44,-1.6758 4.91,-2.7539 1.48,-1.082 2.75,-2.3086 3.82,-3.6836 1.06,-1.375 1.88,-2.8828 2.46,-4.5195 0.57,-1.6407 0.85,-3.3594 0.85,-5.1602 0,-3.0781 -0.58,-5.9609 -1.72,-8.6445 -1.15,-2.6875 -2.8,-5.0117 -4.98,-6.9961 -2.18,-1.9805 -4.86,-3.5508 -8.04,-4.6992 -3.18,-1.1446 -6.8,-1.7188 -10.86,-1.7188 -5.04,0 -9.58,0.8359 -13.61,2.4883 -4.03,1.6523 -7.48,3.8828 -10.37,6.6992 l 2.75,4.5195 c 0.27,0.3594 0.59,0.6719 0.99,0.918 0.39,0.2461 0.82,0.3594 1.28,0.3594 0.68,0 1.5,-0.3594 2.45,-1.0977 0.95,-0.7383 2.17,-1.5547 3.64,-2.4414 1.47,-0.8828 3.27,-1.6875 5.39,-2.4219 2.11,-0.7382 4.68,-1.1132 7.73,-1.1132 2.58,0 4.91,0.3086 6.95,0.9297 2.05,0.625 3.77,1.5273 5.16,2.707 1.39,1.1797 2.46,2.6172 3.2,4.3203 0.73,1.7031 1.1,3.6211 1.1,5.75 0,1.832 -0.35,3.5195 -1.05,5.0586 -0.71,1.5391 -1.74,2.8672 -3.08,3.9648 -1.35,1.0977 -2.98,1.9493 -4.92,2.5547 -1.93,0.6055 -4.11,0.8985 -6.53,0.8985 h -9.63 v 7.8125 h 9.24 c 2,0 3.86,0.2461 5.58,0.7382 1.72,0.4922 3.19,1.211 4.43,2.1602 1.22,0.9492 2.19,2.1133 2.89,3.4883 0.71,1.375 1.05,2.9492 1.05,4.7187 0,1.6016 -0.33,3.0782 -0.98,4.4219 -0.66,1.3398 -1.61,2.5039 -2.85,3.4727 -1.25,0.9648 -2.77,1.7031 -4.57,2.2265 -1.8,0.5235 -3.85,0.7852 -6.14,0.7852 -2.65,0 -4.92,-0.2774 -6.78,-0.836 -1.87,-0.5546 -3.44,-1.1601 -4.72,-1.832 -1.28,-0.6719 -2.31,-1.293 -3.11,-1.8516 -0.8,-0.5585 -1.51,-0.8359 -2.1,-0.8359 -0.52,0 -0.94,0.1133 -1.28,0.3438 -0.32,0.2304 -0.63,0.6054 -0.93,1.1289 l -2.31,4.4726 c 2.66,2.3594 5.74,4.1602 9.24,5.4024 3.51,1.2461 7.49,1.8672 11.94,1.8672 3.63,0 6.91,-0.4415 9.81,-1.3243 2.9,-0.8867 5.35,-2.1289 7.39,-3.7343 2.02,-1.6055 3.6,-3.5039 4.7,-5.6993 1.09,-2.1953 1.63,-4.6015 1.63,-7.2226 z m 41.07,-53.1094 v 70.4024 h 22.46 c 4.32,0 8.05,-0.4258 11.18,-1.2774 3.13,-0.8516 5.7,-2.0625 7.71,-3.6367 2.02,-1.5703 3.5,-3.4844 4.45,-5.7656 0.94,-2.2735 1.42,-4.8438 1.42,-7.6953 0,-1.7344 -0.26,-3.4063 -0.8,-5.0118 -0.54,-1.6015 -1.36,-3.0937 -2.44,-4.4687 -1.08,-1.375 -2.45,-2.6055 -4.1,-3.6836 -1.65,-1.082 -3.6,-1.9688 -5.83,-2.6563 5.14,-1.0117 9.03,-2.8632 11.64,-5.5507 2.62,-2.6836 3.93,-6.2227 3.93,-10.6094 0,-2.9844 -0.54,-5.7031 -1.63,-8.1563 -1.1,-2.457 -2.7,-4.5703 -4.82,-6.3398 -2.11,-1.7695 -4.71,-3.125 -7.79,-4.0938 -3.08,-0.9648 -6.58,-1.457 -10.51,-1.457 z m 9.49,32.082 V 33.5078 h 15.23 c 2.72,0 5.06,0.3086 7.02,0.9336 1.97,0.6211 3.59,1.5078 4.85,2.6367 1.26,1.1289 2.18,2.4727 2.77,4.0274 0.59,1.5547 0.88,3.2578 0.88,5.1289 0,3.6328 -1.29,6.5156 -3.88,8.6289 -2.59,2.1094 -6.47,3.1601 -11.64,3.1601 z m 0,6.7813 h 12.57 c 2.69,0 5.03,0.293 7.01,0.8828 1.98,0.5898 3.62,1.4102 4.92,2.457 1.29,1.0508 2.24,2.3243 2.86,3.8125 0.63,1.4922 0.93,3.1133 0.93,4.8828 0,4.1602 -1.24,7.2032 -3.73,9.125 -2.49,1.9141 -6.35,2.8633 -11.59,2.8633 h -12.97 z m 124.88,28.543 c 0.46,0.7539 1.05,1.4414 1.77,2.0625 0.72,0.625 1.56,0.9336 2.51,0.9336 h 7.08 V 25.9414 h -9.54 v 50.0117 c 0,1.3789 0.04,2.836 0.1,4.3594 0.07,1.5195 0.22,3.1289 0.45,4.832 -0.56,-1.4726 -1.15,-2.8359 -1.79,-4.0976 -0.64,-1.2617 -1.28,-2.375 -1.9,-3.3242 l -33.02,-48.7852 c -0.45,-0.7539 -1.04,-1.4414 -1.77,-2.0625 -0.71,-0.625 -1.55,-0.9336 -2.5,-0.9336 h -7.07 v 70.4024 h 9.53 V 46.2813 c 0,-1.4102 -0.04,-2.8672 -0.1,-4.3868 -0.07,-1.5273 -0.22,-3.164 -0.45,-4.8984 0.56,1.5039 1.17,2.8984 1.81,4.1602 0.64,1.2617 1.26,2.3906 1.88,3.4062 z m 102.1,2.9961 v -8.0079 h -22.8 V 25.9414 h -9.48 v 62.3945 h -22.84 v 8.0079 z m 81.26,-2.9961 c 0.46,0.7539 1.05,1.4414 1.77,2.0625 0.72,0.625 1.55,0.9336 2.5,0.9336 h 7.08 V 25.9414 h -9.53 v 50.0117 c 0,1.3789 0.03,2.836 0.1,4.3594 0.06,1.5195 0.21,3.1289 0.44,4.832 -0.56,-1.4726 -1.15,-2.8359 -1.79,-4.0976 -0.63,-1.2617 -1.27,-2.375 -1.9,-3.3242 l -33.01,-48.7852 c -0.46,-0.7539 -1.05,-1.4414 -1.77,-2.0625 -0.72,-0.625 -1.56,-0.9336 -2.51,-0.9336 h -7.07 v 70.4024 h 9.53 V 46.2813 c 0,-1.4102 -0.04,-2.8672 -0.1,-4.3868 -0.07,-1.5273 -0.21,-3.164 -0.44,-4.8984 0.56,1.5039 1.16,2.8984 1.8,4.1602 0.64,1.2617 1.26,2.3906 1.89,3.4062 z m 92.37,-67.4063 v 30.3125 h -10.13 c -0.82,-0.0312 -1.58,-0.1289 -2.3,-0.293 -0.73,-0.1679 -1.43,-0.4453 -2.12,-0.8359 -0.68,-0.3945 -1.36,-0.918 -2.03,-1.5898 -0.67,-0.6719 -1.36,-1.5039 -2.04,-2.4883 L 3591.34,29.332 c -0.58,-1.0468 -1.39,-1.8672 -2.4,-2.4726 -1.02,-0.6094 -2.21,-0.918 -3.59,-0.918 h -7.17 l 18.23,25.6953 c 1.96,2.8828 4.27,4.9297 6.92,6.1406 -2.81,0.5235 -5.27,1.3438 -7.37,2.4571 -2.09,1.1133 -3.83,2.4726 -5.22,4.0625 -1.39,1.5859 -2.44,3.3906 -3.13,5.4179 -0.69,2.0313 -1.03,4.2266 -1.03,6.586 0,3.0117 0.56,5.75 1.65,8.2031 1.1,2.4531 2.7,4.5703 4.82,6.3203 2.11,1.7539 4.7,3.1133 7.76,4.0781 3.06,0.9649 6.55,1.4415 10.48,1.4415 h 23.44 V 25.9414 Z m -29.29,50.4063 c 0,-1.9649 0.3,-3.7149 0.87,-5.2735 0.57,-1.5547 1.47,-2.8828 2.71,-3.9609 1.22,-1.082 2.81,-1.8985 4.76,-2.4766 1.95,-0.5703 4.27,-0.8672 6.99,-0.8672 h 13.96 v 25.0078 h -13.96 c -2.72,0 -5.04,-0.2929 -6.98,-0.8828 -1.93,-0.5898 -3.52,-1.4218 -4.76,-2.5234 -1.25,-1.0938 -2.15,-2.4063 -2.72,-3.9297 -0.57,-1.5234 -0.87,-3.2266 -0.87,-5.0937"
         style="fill:#2a2a2a;fill-opacity:1;fill-rule:nonzero;stroke:none"
         id="path16" /><path
         d="m 871.32,903.25 c 64.11,32.766 145.02,22.422 198.51,-31.062 v 0 0 c -38.88,-9.208 -71.533,-31.254 -94.545,-60.59 -30.652,34.699 -65.57,65.535 -103.965,91.652"
         style="fill:#1dc6c3;fill-opacity:1;fill-rule:evenodd;stroke:none"
         id="path18" /></g></g></svg>
