<svg version="1.1" id="svg2" xml:space="preserve" width="541.33331" height="142.66667" viewBox="0 0 541.33331 142.66667" sodipodi:docname="Qumai_Logo_RGB.eps" xmlns:inkscape="http://www.inkscape.org/namespaces/inkscape" xmlns:sodipodi="http://sodipodi.sourceforge.net/DTD/sodipodi-0.dtd" xmlns="http://www.w3.org/2000/svg" xmlns:svg="http://www.w3.org/2000/svg"><defs id="defs6" fill="#ffffff"/><sodipodi:namedview id="namedview4" pagecolor="#ffffff" bordercolor="#ffffff" borderopacity="1.0" inkscape:pageshadow="2" inkscape:pageopacity="0.0" inkscape:pagecheckerboard="0" fill="#ffffff"/><g id="g8" inkscape:groupmode="layer" inkscape:label="ink_ext_XXXXXX" transform="matrix(1.3333333,0,0,-1.3333333,0,142.66667)"><g id="g10" transform="scale(0.1)"><path d="M 6.28125,1042.45 H 640.871 c 207.774,0 387.859,-118.52 476.359,-291.637 H 297.918 C 137.52,750.813 6.28125,882.051 6.28125,1042.45 Z M 1154.56,656.48 c 13.64,-47.207 20.97,-97.089 20.97,-148.691 0,-50.551 -7.02,-99.465 -20.13,-145.816 H 579.594 c -161.981,0 -294.512,132.531 -294.512,294.507 v 0 z M 1117.07,264.438 C 1054.43,142.117 946.047,47.1211 814.5,1.97656 850.285,28.6406 873.488,71.2734 873.488,118.848 c 0,79.754 -63.027,143.433 -141.586,145.59 h 385.168" style="fill:#ffffff;fill-opacity:1;fill-rule:evenodd;stroke:none" id="path12"/><path d="M 2135.35,329.719 V 445.07 c -18.08,-7.746 -48.21,-12.05 -74.04,-12.05 -59.4,0 -120.52,20.66 -156.67,52.515 94.69,52.508 143.76,154.09 143.76,269.442 0,172.168 -105.88,309.043 -296.13,309.043 -191.11,0 -296.13,-139.454 -296.13,-308.18 0,-210.91 117.93,-306.461 295.27,-306.461 6.03,0 4.3,0 10.33,0 53.37,-68.871 164.42,-136.879 266,-136.879 48.21,0 86.09,6.891 107.61,17.219 z m -265.14,430.422 c 0,-112.77 -23.25,-228.121 -114.5,-228.121 -87.8,0 -121.37,105.882 -121.37,221.234 0,133.434 32.71,228.125 114.49,228.125 90.38,0 121.38,-109.324 121.38,-221.238 z M 2546.3,461.426 c -6.88,41.324 -9.47,105.887 -9.47,166.144 0,20.664 0,47.348 0,68.868 0,57.679 1.73,111.05 6.03,164.421 -61.98,-7.746 -106.74,-10.328 -167,-12.05 2.58,-47.344 5.16,-93.832 5.16,-142.039 0,-37.016 0,-92.973 0,-126.543 -21.52,-18.942 -43.04,-31.852 -59.4,-31.852 -24.96,0 -37.01,16.355 -39.6,55.094 -1.72,18.937 -0.86,66.285 -0.86,87.804 0,42.184 0.86,95.559 4.31,169.586 -61.98,-8.609 -115.36,-10.328 -168.73,-12.05 6.89,-62.84 6.89,-125.68 6.89,-167.864 0,-17.218 0,-60.261 0.86,-89.531 3.44,-86.082 30.99,-142.035 124.82,-142.035 44.77,0 98.14,24.965 131.71,50.789 v -49.934 c 70.59,6.891 100.72,8.61 165.28,11.192 z m 781.13,-4.301 c -7.75,71.449 -8.61,124.824 -8.61,186.801 0,16.359 0,42.183 -0.86,71.453 -1.73,75.75 -21.52,145.48 -123.96,145.48 -45.63,0 -99.86,-23.242 -149.79,-61.98 -21.52,42.184 -43.05,61.98 -111.91,61.98 -39.6,0 -99,-24.101 -135.16,-50.789 v 51.657 c -36.15,-7.75 -111.91,-11.196 -165.28,-12.918 8.61,-49.067 9.47,-116.215 9.47,-155.809 0,-18.082 0,-61.121 0,-74.895 0,-58.539 0,-85.226 -5.16,-160.98 35.29,4.301 60.25,5.164 82.63,5.164 23.25,0 55.1,-1.723 84.37,-5.164 -3.44,37.016 -5.17,89.527 -6.03,162.699 0,27.547 0,81.781 0,109.328 21.52,18.942 47.35,32.715 63.71,32.715 27.54,0 38.74,-18.082 41.32,-55.961 1.72,-20.656 0.86,-76.613 0.86,-89.523 0,-48.211 0,-106.746 -4.3,-159.258 30.98,2.582 64.56,5.164 86.94,5.164 23.24,0 50.79,-1.723 80.06,-5.164 -4.3,53.375 -6.03,123.961 -6.03,174.754 0,18.937 -1.72,77.476 -1.72,98.996 21.52,20.66 45.63,30.992 61.98,30.992 28.41,0 38.74,-21.523 41.32,-56.82 0.86,-17.215 0.86,-72.309 0.86,-85.223 0,-39.597 -0.86,-105.023 -4.3,-162.699 33.57,3.441 62.84,5.164 85.23,5.164 23.24,0 54.23,-1.723 84.36,-5.164 z m 466.91,11.188 c -6.02,22.382 -8.61,49.07 -10.33,76.617 -1.72,30.988 -1.72,65.425 -1.72,92.972 0,30.989 0.86,45.621 0.86,76.614 0,98.996 -30.99,148.066 -166.14,148.066 -60.26,0 -132.58,-9.469 -205.74,-32.715 9.46,-32.707 22.38,-84.359 24.96,-97.273 44.76,34.433 88.66,51.656 131.71,51.656 35.29,0 56.81,-21.523 56.81,-60.262 v -18.082 c -28.4,-4.301 -89.52,-12.051 -131.71,-23.242 -50.79,-13.773 -105.88,-39.598 -105.88,-115.351 0,-82.641 48.21,-117.934 116.22,-117.934 36.15,0 88.66,15.492 127.4,46.484 0.86,-13.773 2.58,-31.851 5.17,-46.484 49.93,9.465 106.74,18.074 158.39,18.934 z m -168.73,93.835 c -9.47,-8.609 -38.73,-18.078 -52.51,-18.078 -18.08,0 -35.29,12.051 -35.29,38.739 0,27.546 13.77,40.461 37.01,46.484 12.06,3.445 36.16,7.746 50.79,9.473 0,-13.778 0,-55.957 0,-76.618 z m 431.62,413.207 c 0,47.345 -29.27,83.505 -88.67,83.505 -57.67,0 -94.69,-34.43 -94.69,-83.505 0,-54.234 41.33,-83.5 94.69,-83.5 59.4,0 88.67,36.153 88.67,83.5 z m -9.46,-518.23 c -3.45,43.043 -6.03,97.277 -6.03,156.672 0,31.851 0,60.262 0,78.34 0,49.929 0,111.051 1.72,168.722 -55.96,-6.023 -111.05,-12.05 -166.14,-12.91 6.02,-48.207 7.74,-117.937 7.74,-156.676 0,-28.406 0,-55.093 0,-76.617 0,-60.254 -2.58,-93.828 -6.02,-157.531 37.88,3.441 64.56,5.164 84.36,5.164 19.8,0 59.4,-1.723 84.37,-5.164" style="fill:#ffffff;fill-opacity:1;fill-rule:nonzero;stroke:none" id="path14"/><path d="m 1509.14,243.02 c 5.18,-0.114 9.91,-1.043 14.18,-2.801 4.28,-1.758 7.95,-4.121 11,-7.078 3.04,-2.946 5.41,-6.371 7.09,-10.289 1.68,-3.914 2.52,-8.098 2.52,-12.524 0,-4.465 -0.84,-8.664 -2.52,-12.598 -1.68,-3.937 -4.05,-7.382 -7.09,-10.351 -3.05,-2.973 -6.72,-5.356 -11,-7.133 -4.27,-1.777 -9,-2.726 -14.18,-2.84 v -9.816 h -10.45 v 9.816 c -5.22,0.114 -9.97,1.063 -14.25,2.84 -4.27,1.777 -7.92,4.16 -10.97,7.133 -3.04,2.969 -5.41,6.414 -7.09,10.351 -1.69,3.934 -2.54,8.133 -2.54,12.598 0,4.426 0.85,8.61 2.55,12.524 1.71,3.918 4.09,7.343 7.16,10.289 3.06,2.957 6.74,5.32 11.01,7.078 4.27,1.758 8.98,2.687 14.13,2.801 v 9.593 h 10.45 z m -34.29,-32.692 c 0,-3.328 0.57,-6.449 1.7,-9.363 1.14,-2.914 2.75,-5.473 4.83,-7.664 2.08,-2.196 4.6,-3.938 7.53,-5.223 2.93,-1.289 6.18,-1.949 9.78,-1.984 v 48.41 c -3.6,-0.07 -6.85,-0.754 -9.78,-2.043 -2.93,-1.285 -5.45,-3.004 -7.53,-5.18 -2.08,-2.179 -3.69,-4.73 -4.83,-7.644 -1.13,-2.914 -1.7,-6.016 -1.7,-9.309 z m 58.12,0 c 0,3.293 -0.56,6.395 -1.7,9.289 -1.14,2.895 -2.74,5.434 -4.84,7.625 -2.11,2.192 -4.62,3.934 -7.55,5.219 -2.93,1.289 -6.19,1.973 -9.74,2.043 v -48.41 c 3.55,0.035 6.81,0.695 9.74,1.984 2.93,1.285 5.44,3.027 7.55,5.223 2.1,2.191 3.7,4.75 4.84,7.664 1.14,2.914 1.7,6.035 1.7,9.363 z m 129.92,-2.101 c 0,-6.09 -0.96,-11.672 -2.89,-16.762 -1.93,-5.09 -4.66,-9.481 -8.18,-13.152 -3.52,-3.668 -7.73,-6.504 -12.68,-8.532 -4.93,-2.023 -10.4,-3.043 -16.37,-3.043 -5.98,0 -11.43,1.02 -16.35,3.043 -4.92,2.028 -9.14,4.864 -12.66,8.532 -3.52,3.671 -6.24,8.062 -8.17,13.152 -1.93,5.09 -2.9,10.672 -2.9,16.762 0,6.089 0.97,11.691 2.9,16.781 1.93,5.09 4.65,9.476 8.17,13.168 3.52,3.691 7.74,6.547 12.66,8.594 4.92,2.043 10.37,3.062 16.35,3.062 5.97,0 11.44,-1.019 16.37,-3.062 4.95,-2.047 9.16,-4.903 12.68,-8.594 3.52,-3.692 6.25,-8.078 8.18,-13.168 1.93,-5.09 2.89,-10.692 2.89,-16.781 z m -11.29,0 c 0,4.996 -0.69,9.476 -2.05,13.453 -1.36,3.972 -3.29,7.34 -5.79,10.082 -2.49,2.742 -5.52,4.843 -9.08,6.316 -3.55,1.481 -7.53,2.215 -11.91,2.215 -4.36,0 -8.31,-0.734 -11.87,-2.215 -3.56,-1.473 -6.58,-3.574 -9.1,-6.316 -2.52,-2.742 -4.46,-6.11 -5.83,-10.082 -1.36,-3.977 -2.04,-8.457 -2.04,-13.453 0,-4.993 0.68,-9.457 2.04,-13.414 1.37,-3.954 3.31,-7.301 5.83,-10.047 2.52,-2.743 5.54,-4.84 9.1,-6.297 3.56,-1.457 7.51,-2.199 11.87,-2.199 4.38,0 8.36,0.742 11.91,2.199 3.56,1.457 6.59,3.554 9.08,6.297 2.5,2.746 4.43,6.093 5.79,10.047 1.36,3.957 2.05,8.421 2.05,13.414 z m 121.97,-40.637 h -11.01 v 37.004 h -43.87 V 167.59 h -11.02 v 81.332 h 11.02 v -36.266 h 43.87 v 36.266 h 11.01 z m 112.67,81.332 v -72.703 h 13.28 v -25.145 c 0,-0.988 -0.32,-1.781 -0.97,-2.383 -0.64,-0.609 -1.5,-0.91 -2.55,-0.91 h -6.53 v 19.809 h -65.55 v -16.516 c 0,-0.988 -0.33,-1.781 -0.99,-2.383 -0.66,-0.609 -1.51,-0.91 -2.54,-0.91 h -6.58 v 28.438 h 8.29 c 1.17,0.566 2.35,1.492 3.52,2.758 1.17,1.269 2.31,3.086 3.38,5.449 1.09,2.363 2.09,5.336 3.03,8.933 0.95,3.594 1.82,8 2.6,13.207 0.77,5.196 1.43,11.274 2,18.235 0.57,6.961 1,15.004 1.31,24.121 z m -37.97,-8.684 c -0.46,-9.308 -1.1,-17.461 -1.95,-24.461 -0.86,-7 -1.86,-13.058 -2.99,-18.183 -1.14,-5.125 -2.4,-9.422 -3.81,-12.883 -1.39,-3.461 -2.89,-6.301 -4.48,-8.492 h 40.13 v 64.019 z m 208.64,-55.847 c 0.6,0 1.13,-0.246 1.59,-0.739 l 4.37,-4.711 c -3.33,-3.859 -7.37,-6.871 -12.11,-9.027 -4.75,-2.156 -10.5,-3.234 -17.24,-3.234 -5.82,0 -11.13,1.023 -15.89,3.047 -4.77,2.027 -8.83,4.859 -12.2,8.515 -3.37,3.649 -5.98,8.02 -7.84,13.129 -1.85,5.109 -2.77,10.727 -2.77,16.856 0,6.128 0.96,11.75 2.89,16.859 1.93,5.109 4.65,9.496 8.15,13.164 3.5,3.676 7.68,6.531 12.57,8.555 4.87,2.023 10.27,3.027 16.17,3.027 5.79,0 10.9,-0.93 15.33,-2.781 4.42,-1.856 8.32,-4.371 11.69,-7.547 l -3.64,-5.055 c -0.22,-0.379 -0.51,-0.679 -0.87,-0.926 -0.36,-0.25 -0.84,-0.382 -1.45,-0.382 -0.68,0 -1.52,0.382 -2.5,1.121 -0.98,0.738 -2.27,1.551 -3.86,2.457 -1.59,0.91 -3.57,1.742 -5.96,2.48 -2.38,0.739 -5.32,1.094 -8.79,1.094 -4.21,0 -8.05,-0.715 -11.53,-2.172 -3.48,-1.457 -6.47,-3.574 -8.98,-6.34 -2.52,-2.761 -4.49,-6.129 -5.89,-10.101 -1.4,-3.977 -2.1,-8.457 -2.1,-13.453 0,-5.071 0.74,-9.59 2.2,-13.567 1.45,-3.972 3.44,-7.32 5.96,-10.062 2.51,-2.746 5.48,-4.844 8.91,-6.285 3.42,-1.434 7.11,-2.153 11.08,-2.153 2.43,0 4.62,0.149 6.57,0.434 1.95,0.285 3.75,0.719 5.39,1.324 1.64,0.602 3.18,1.379 4.6,2.309 1.42,0.929 2.82,2.023 4.22,3.312 0.64,0.563 1.29,0.852 1.93,0.852 z m 121.34,23.836 c 0,-6.09 -0.96,-11.672 -2.89,-16.762 -1.93,-5.09 -4.65,-9.481 -8.17,-13.152 -3.52,-3.668 -7.74,-6.504 -12.68,-8.532 -4.94,-2.023 -10.4,-3.043 -16.38,-3.043 -5.98,0 -11.43,1.02 -16.35,3.043 -4.92,2.028 -9.14,4.864 -12.65,8.532 -3.52,3.671 -6.25,8.062 -8.18,13.152 -1.93,5.09 -2.9,10.672 -2.9,16.762 0,6.089 0.97,11.691 2.9,16.781 1.93,5.09 4.66,9.476 8.18,13.168 3.51,3.691 7.73,6.547 12.65,8.594 4.92,2.043 10.37,3.062 16.35,3.062 5.98,0 11.44,-1.019 16.38,-3.062 4.94,-2.047 9.16,-4.903 12.68,-8.594 3.52,-3.692 6.24,-8.078 8.17,-13.168 1.93,-5.09 2.89,-10.692 2.89,-16.781 z m -11.29,0 c 0,4.996 -0.68,9.476 -2.04,13.453 -1.37,3.972 -3.29,7.34 -5.79,10.082 -2.5,2.742 -5.52,4.843 -9.08,6.316 -3.56,1.481 -7.53,2.215 -11.92,2.215 -4.35,0 -8.31,-0.734 -11.86,-2.215 -3.56,-1.473 -6.59,-3.574 -9.1,-6.316 -2.52,-2.742 -4.47,-6.11 -5.83,-10.082 -1.36,-3.977 -2.04,-8.457 -2.04,-13.453 0,-4.993 0.68,-9.457 2.04,-13.414 1.36,-3.954 3.31,-7.301 5.83,-10.047 2.51,-2.743 5.54,-4.84 9.1,-6.297 3.55,-1.457 7.51,-2.199 11.86,-2.199 4.39,0 8.36,0.742 11.92,2.199 3.56,1.457 6.58,3.554 9.08,6.297 2.5,2.746 4.42,6.093 5.79,10.047 1.36,3.957 2.04,8.421 2.04,13.414 z m 56.08,-40.637 v 81.332 h 11.01 v -72.703 h 40.65 v 72.703 h 11.06 v -72.703 h 12.43 v -25.145 c 0,-0.988 -0.32,-1.781 -0.99,-2.383 -0.66,-0.609 -1.51,-0.91 -2.53,-0.91 h -6.58 v 19.809 z m 170.39,77.871 c 0.53,0.871 1.21,1.664 2.04,2.383 0.83,0.719 1.8,1.078 2.9,1.078 h 8.17 V 167.59 h -11.01 v 57.781 c 0,1.586 0.04,3.27 0.11,5.031 0.08,1.758 0.25,3.61 0.51,5.582 -0.64,-1.707 -1.32,-3.273 -2.06,-4.734 -0.73,-1.453 -1.47,-2.738 -2.19,-3.836 l -38.15,-56.363 c -0.53,-0.871 -1.21,-1.664 -2.04,-2.387 -0.83,-0.715 -1.79,-1.074 -2.89,-1.074 h -8.18 v 81.332 h 11.02 v -57.836 c 0,-1.625 -0.04,-3.309 -0.12,-5.07 -0.07,-1.762 -0.24,-3.653 -0.51,-5.657 0.64,1.743 1.35,3.348 2.08,4.805 0.74,1.457 1.46,2.762 2.18,3.938 z m 128.95,-77.871 h -8.51 c -0.98,0 -1.78,0.242 -2.39,0.734 -0.6,0.492 -1.05,1.117 -1.36,1.875 l -7.6,19.637 h -36.5 l -7.61,-19.637 c -0.22,-0.683 -0.66,-1.289 -1.3,-1.816 -0.64,-0.528 -1.45,-0.793 -2.44,-0.793 h -8.46 l 32.53,81.332 h 11.12 z m -53.29,30.191 h 30.36 l -12.77,33.094 c -0.41,0.984 -0.81,2.117 -1.21,3.402 -0.4,1.289 -0.81,2.672 -1.23,4.145 -0.38,-1.473 -0.76,-2.856 -1.15,-4.16 -0.4,-1.305 -0.82,-2.461 -1.23,-3.446 z m 156.2,51.141 V 167.59 h -11.02 v 72.648 h -26.9 c -0.53,-10.441 -1.23,-19.508 -2.12,-27.183 -0.89,-7.684 -1.96,-14.25 -3.23,-19.696 -1.27,-5.449 -2.71,-9.879 -4.32,-13.304 -1.61,-3.426 -3.36,-6.129 -5.27,-8.094 -1.92,-1.973 -3.98,-3.313 -6.17,-4.031 -2.2,-0.719 -4.53,-1.078 -6.99,-1.078 -2.04,0 -3.61,0.187 -4.71,0.546 -1.1,0.36 -1.64,0.891 -1.64,1.606 v 6.984 h 3.97 c 1.52,0 3.01,0.301 4.48,0.891 1.48,0.586 2.9,1.758 4.26,3.539 1.37,1.777 2.65,4.312 3.86,7.602 1.21,3.293 2.31,7.644 3.3,13.054 0.98,5.41 1.83,12.031 2.55,19.848 0.71,7.812 1.27,17.141 1.64,28 z m 60.78,0 v -35.02 h 15.84 c 4.95,0 9.23,-0.527 12.82,-1.609 3.6,-1.078 6.57,-2.59 8.9,-4.539 2.32,-1.949 4.05,-4.274 5.17,-6.961 1.11,-2.688 1.66,-5.617 1.66,-8.797 0,-3.746 -0.62,-7.117 -1.89,-10.125 -1.27,-3.008 -3.12,-5.582 -5.57,-7.699 -2.44,-2.121 -5.45,-3.746 -9,-4.879 -3.56,-1.137 -7.61,-1.703 -12.15,-1.703 h -26.73 v 81.332 z m 0,-43.762 v -28.828 h 15.78 c 3.14,0 5.85,0.359 8.1,1.074 2.25,0.723 4.09,1.723 5.51,2.989 1.41,1.269 2.45,2.8 3.12,4.601 0.66,1.793 0.98,3.766 0.98,5.918 0,2.274 -0.32,4.297 -0.98,6.055 -0.67,1.761 -1.71,3.254 -3.12,4.488 -1.42,1.227 -3.26,2.152 -5.49,2.777 -2.24,0.625 -4.92,0.926 -8.06,0.926 z m 153.02,-37.57 h -11 v 37.004 h -43.88 V 167.59 h -11.01 v 81.332 h 11.01 v -36.266 h 43.88 v 36.266 h 11 z m 124.99,40.637 c 0,-6.09 -0.97,-11.672 -2.9,-16.762 -1.93,-5.09 -4.65,-9.481 -8.17,-13.152 -3.52,-3.668 -7.74,-6.504 -12.68,-8.532 -4.94,-2.023 -10.4,-3.043 -16.38,-3.043 -5.98,0 -11.43,1.02 -16.35,3.043 -4.92,2.028 -9.14,4.864 -12.65,8.532 -3.52,3.671 -6.25,8.062 -8.18,13.152 -1.93,5.09 -2.89,10.672 -2.89,16.762 0,6.089 0.96,11.691 2.89,16.781 1.93,5.09 4.66,9.476 8.18,13.168 3.51,3.691 7.73,6.547 12.65,8.594 4.92,2.043 10.37,3.062 16.35,3.062 5.98,0 11.44,-1.019 16.38,-3.062 4.94,-2.047 9.16,-4.903 12.68,-8.594 3.52,-3.692 6.24,-8.078 8.17,-13.168 1.93,-5.09 2.9,-10.692 2.9,-16.781 z m -11.3,0 c 0,4.996 -0.68,9.476 -2.04,13.453 -1.36,3.972 -3.29,7.34 -5.79,10.082 -2.5,2.742 -5.53,4.843 -9.08,6.316 -3.56,1.481 -7.53,2.215 -11.92,2.215 -4.35,0 -8.31,-0.734 -11.86,-2.215 -3.56,-1.473 -6.59,-3.574 -9.11,-6.316 -2.51,-2.742 -4.46,-6.11 -5.82,-10.082 -1.36,-3.977 -2.05,-8.457 -2.05,-13.453 0,-4.993 0.69,-9.457 2.05,-13.414 1.36,-3.954 3.31,-7.301 5.82,-10.047 2.52,-2.743 5.55,-4.84 9.11,-6.297 3.55,-1.457 7.51,-2.199 11.86,-2.199 4.39,0 8.36,0.742 11.92,2.199 3.55,1.457 6.58,3.554 9.08,6.297 2.5,2.746 4.43,6.093 5.79,10.047 1.36,3.957 2.04,8.421 2.04,13.414 z m 105.06,32.011 h -37.97 V 167.59 h -11.01 v 81.332 h 48.98 z m 112.27,-32.011 c 0,-6.09 -0.97,-11.672 -2.9,-16.762 -1.93,-5.09 -4.65,-9.481 -8.17,-13.152 -3.52,-3.668 -7.74,-6.504 -12.68,-8.532 -4.93,-2.023 -10.4,-3.043 -16.38,-3.043 -5.98,0 -11.43,1.02 -16.35,3.043 -4.92,2.028 -9.14,4.864 -12.65,8.532 -3.53,3.671 -6.25,8.062 -8.18,13.152 -1.93,5.09 -2.89,10.672 -2.89,16.762 0,6.089 0.96,11.691 2.89,16.781 1.93,5.09 4.65,9.476 8.18,13.168 3.51,3.691 7.73,6.547 12.65,8.594 4.92,2.043 10.37,3.062 16.35,3.062 5.98,0 11.45,-1.019 16.38,-3.062 4.94,-2.047 9.16,-4.903 12.68,-8.594 3.52,-3.692 6.24,-8.078 8.17,-13.168 1.93,-5.09 2.9,-10.692 2.9,-16.781 z m -11.3,0 c 0,4.996 -0.68,9.476 -2.04,13.453 -1.36,3.972 -3.29,7.34 -5.79,10.082 -2.5,2.742 -5.52,4.843 -9.08,6.316 -3.56,1.481 -7.53,2.215 -11.92,2.215 -4.35,0 -8.3,-0.734 -11.86,-2.215 -3.56,-1.473 -6.59,-3.574 -9.1,-6.316 -2.52,-2.742 -4.47,-6.11 -5.83,-10.082 -1.37,-3.977 -2.05,-8.457 -2.05,-13.453 0,-4.993 0.68,-9.457 2.05,-13.414 1.36,-3.954 3.31,-7.301 5.83,-10.047 2.51,-2.743 5.54,-4.84 9.1,-6.297 3.56,-1.457 7.51,-2.199 11.86,-2.199 4.39,0 8.36,0.742 11.92,2.199 3.56,1.457 6.58,3.554 9.08,6.297 2.5,2.746 4.43,6.093 5.79,10.047 1.36,3.957 2.04,8.421 2.04,13.414 z m 125.15,-10.219 V 167.59 h -10.95 v 81.332 h 24.01 c 5.14,0 9.63,-0.586 13.43,-1.777 3.8,-1.192 6.94,-2.895 9.44,-5.086 2.5,-2.2 4.37,-4.848 5.6,-7.95 1.23,-3.101 1.84,-6.566 1.84,-10.386 0,-3.782 -0.67,-7.246 -1.99,-10.387 -1.32,-3.141 -3.25,-5.848 -5.81,-8.113 -2.55,-2.274 -5.71,-4.032 -9.48,-5.301 -3.76,-1.27 -8.11,-1.914 -13.03,-1.914 z m 0,8.742 h 13.06 c 3.14,0 5.92,0.418 8.32,1.25 2.41,0.832 4.43,2.004 6.08,3.5 1.64,1.496 2.87,3.273 3.71,5.355 0.83,2.083 1.25,4.372 1.25,6.868 0,5.183 -1.59,9.234 -4.79,12.144 -3.2,2.914 -8.06,4.371 -14.57,4.371 h -13.06 z m 146.72,-39.16 h -8.51 c -0.98,0 -1.78,0.242 -2.38,0.734 -0.61,0.492 -1.06,1.117 -1.36,1.875 l -7.61,19.637 h -36.5 l -7.6,-19.637 c -0.23,-0.683 -0.67,-1.289 -1.31,-1.816 -0.64,-0.528 -1.45,-0.793 -2.44,-0.793 h -8.45 l 32.52,81.332 h 11.12 z m -53.29,30.191 h 30.36 l -12.77,33.094 c -0.41,0.984 -0.81,2.117 -1.21,3.402 -0.39,1.289 -0.81,2.672 -1.23,4.145 -0.38,-1.473 -0.75,-2.856 -1.15,-4.16 -0.4,-1.305 -0.81,-2.461 -1.23,-3.446 z m 139.91,31.164 c 0,-4.086 -1,-7.683 -3.03,-10.785 -2.02,-3.101 -4.88,-5.527 -8.55,-7.265 2.08,-0.868 3.98,-1.93 5.67,-3.18 1.71,-1.246 3.18,-2.664 4.41,-4.258 1.24,-1.586 2.18,-3.328 2.84,-5.219 0.67,-1.894 0.99,-3.879 0.99,-5.957 0,-3.558 -0.67,-6.89 -1.99,-9.992 -1.32,-3.105 -3.23,-5.789 -5.75,-8.078 -2.52,-2.289 -5.62,-4.106 -9.29,-5.434 -3.67,-1.324 -7.85,-1.984 -12.55,-1.984 -5.82,0 -11.06,0.965 -15.71,2.875 -4.66,1.914 -8.65,4.484 -11.98,7.738 l 3.18,5.223 c 0.3,0.418 0.68,0.777 1.13,1.059 0.46,0.285 0.95,0.414 1.48,0.414 0.79,0 1.74,-0.414 2.83,-1.262 1.1,-0.856 2.5,-1.801 4.21,-2.82 1.7,-1.024 3.78,-1.95 6.22,-2.801 2.44,-0.852 5.41,-1.289 8.93,-1.289 2.99,0 5.68,0.359 8.04,1.082 2.36,0.718 4.35,1.758 5.96,3.121 1.61,1.363 2.84,3.027 3.69,4.992 0.85,1.969 1.27,4.184 1.27,6.641 0,2.121 -0.4,4.066 -1.21,5.847 -0.82,1.778 -2.01,3.309 -3.56,4.582 -1.55,1.262 -3.44,2.25 -5.68,2.946 -2.23,0.699 -4.74,1.043 -7.55,1.043 h -11.12 v 9.027 h 10.67 c 2.31,0 4.47,0.281 6.45,0.852 1.99,0.566 3.69,1.398 5.11,2.492 1.42,1.101 2.54,2.445 3.35,4.031 0.81,1.59 1.21,3.406 1.21,5.449 0,1.856 -0.38,3.555 -1.13,5.106 -0.76,1.554 -1.86,2.898 -3.3,4.015 -1.44,1.117 -3.2,1.969 -5.27,2.571 -2.09,0.605 -4.45,0.91 -7.1,0.91 -3.06,0 -5.67,-0.321 -7.83,-0.965 -2.16,-0.641 -3.98,-1.344 -5.45,-2.117 -1.48,-0.778 -2.67,-1.496 -3.6,-2.141 -0.92,-0.641 -1.74,-0.965 -2.42,-0.965 -0.6,0 -1.1,0.133 -1.47,0.399 -0.38,0.265 -0.74,0.699 -1.08,1.304 l -2.67,5.168 c 3.06,2.723 6.62,4.805 10.67,6.239 4.05,1.441 8.64,2.16 13.79,2.16 4.2,0 7.99,-0.512 11.33,-1.531 3.35,-1.024 6.19,-2.461 8.54,-4.313 2.34,-1.859 4.16,-4.051 5.43,-6.586 1.26,-2.535 1.89,-5.316 1.89,-8.344 z m 47.45,-61.355 v 81.332 h 25.94 c 4.99,0 9.3,-0.492 12.92,-1.473 3.61,-0.984 6.58,-2.383 8.91,-4.203 2.32,-1.816 4.03,-4.031 5.12,-6.656 1.1,-2.633 1.65,-5.602 1.65,-8.895 0,-2.004 -0.3,-3.937 -0.93,-5.789 -0.62,-1.855 -1.57,-3.574 -2.81,-5.164 -1.25,-1.59 -2.82,-3.008 -4.73,-4.258 -1.91,-1.25 -4.17,-2.273 -6.74,-3.062 5.94,-1.172 10.42,-3.313 13.45,-6.414 3.03,-3.11 4.54,-7.192 4.54,-12.262 0,-3.441 -0.62,-6.582 -1.89,-9.422 -1.27,-2.84 -3.12,-5.277 -5.56,-7.32 -2.44,-2.043 -5.45,-3.613 -9.01,-4.731 -3.56,-1.117 -7.61,-1.683 -12.15,-1.683 z m 10.95,37.062 v -28.32 h 17.59 c 3.15,0 5.85,0.359 8.12,1.074 2.27,0.723 4.15,1.742 5.6,3.047 1.46,1.309 2.52,2.86 3.2,4.652 0.68,1.801 1.02,3.766 1.02,5.922 0,4.203 -1.5,7.532 -4.48,9.973 -2.99,2.441 -7.48,3.652 -13.46,3.652 z m 0,7.832 h 14.53 c 3.1,0 5.81,0.34 8.1,1.024 2.29,0.68 4.18,1.625 5.68,2.836 1.49,1.211 2.59,2.687 3.3,4.406 0.73,1.723 1.08,3.598 1.08,5.641 0,4.804 -1.43,8.324 -4.31,10.539 -2.87,2.215 -7.34,3.308 -13.39,3.308 h -14.99 z m 144.28,32.977 c 0.53,0.871 1.21,1.664 2.04,2.383 0.84,0.719 1.8,1.078 2.9,1.078 h 8.18 V 167.59 h -11.02 v 57.781 c 0,1.586 0.04,3.27 0.12,5.031 0.07,1.758 0.25,3.61 0.51,5.582 -0.65,-1.707 -1.33,-3.273 -2.07,-4.734 -0.73,-1.453 -1.47,-2.738 -2.19,-3.836 l -38.15,-56.363 c -0.52,-0.871 -1.2,-1.664 -2.04,-2.387 -0.83,-0.715 -1.79,-1.074 -2.89,-1.074 h -8.17 v 81.332 h 11.01 v -57.836 c 0,-1.625 -0.04,-3.309 -0.12,-5.07 -0.07,-1.762 -0.24,-3.653 -0.51,-5.657 0.65,1.743 1.35,3.348 2.08,4.805 0.74,1.457 1.46,2.762 2.18,3.938 z m 117.95,3.461 v -9.25 h -26.34 V 167.59 h -10.95 v 72.082 h -26.4 v 9.25 z m 93.87,-3.461 c 0.54,0.871 1.22,1.664 2.05,2.383 0.83,0.719 1.79,1.078 2.89,1.078 h 8.18 V 167.59 h -11.01 v 57.781 c 0,1.586 0.03,3.27 0.11,5.031 0.07,1.758 0.25,3.61 0.51,5.582 -0.64,-1.707 -1.33,-3.273 -2.07,-4.734 -0.73,-1.453 -1.47,-2.738 -2.19,-3.836 l -38.14,-56.363 c -0.53,-0.871 -1.21,-1.664 -2.04,-2.387 -0.83,-0.715 -1.8,-1.074 -2.9,-1.074 h -8.17 v 81.332 h 11.01 v -57.836 c 0,-1.625 -0.04,-3.309 -0.11,-5.07 -0.08,-1.762 -0.25,-3.653 -0.52,-5.657 0.65,1.743 1.35,3.348 2.09,4.805 0.74,1.457 1.46,2.762 2.17,3.938 z m 106.71,-77.871 v 35.015 h -11.69 c -0.94,-0.035 -1.84,-0.152 -2.67,-0.339 -0.83,-0.188 -1.65,-0.508 -2.44,-0.961 -0.8,-0.453 -1.57,-1.063 -2.35,-1.84 -0.77,-0.774 -1.57,-1.735 -2.36,-2.871 l -17.66,-25.09 c -0.68,-1.211 -1.6,-2.16 -2.77,-2.856 -1.18,-0.699 -2.56,-1.058 -4.15,-1.058 h -8.28 l 21.06,29.683 c 2.26,3.329 4.93,5.696 8,7.094 -3.25,0.606 -6.09,1.551 -8.52,2.836 -2.42,1.289 -4.43,2.86 -6.03,4.692 -1.61,1.839 -2.82,3.918 -3.61,6.265 -0.8,2.344 -1.2,4.883 -1.2,7.606 0,3.48 0.65,6.64 1.91,9.48 1.27,2.832 3.13,5.277 5.57,7.301 2.44,2.023 5.42,3.594 8.97,4.711 3.53,1.117 7.56,1.664 12.1,1.664 h 27.07 V 167.59 Z m -33.83,58.234 c 0,-2.273 0.34,-4.297 1.01,-6.094 0.66,-1.796 1.7,-3.328 3.12,-4.578 1.42,-1.25 3.25,-2.195 5.51,-2.859 2.25,-0.66 4.93,-1 8.07,-1 h 16.12 v 28.891 h -16.12 c -3.14,0 -5.82,-0.34 -8.06,-1.024 -2.23,-0.68 -4.06,-1.644 -5.51,-2.91 -1.43,-1.27 -2.47,-2.785 -3.13,-4.543 -0.67,-1.758 -1.01,-3.727 -1.01,-5.883" style="fill:#ffffff;fill-opacity:1;fill-rule:nonzero;stroke:none" id="path16"/><path d="m 995.773,1029.42 c 73.027,37.33 165.157,25.68 226.237,-34.986 0.17,-0.157 5.62,-5.621 5.79,-5.782 v 0 0 c -0.36,0 -0.78,-0.043 -1.23,-0.121 -44.45,-3.996 -83.34,-27.32 -108.17,-61.508 l -3.88,-2.281 c -35.01,39.629 -74.89,74.848 -118.747,104.678" style="fill:#ffffff;fill-opacity:1;fill-rule:evenodd;stroke:none" id="path18"/></g></g></svg>